<?xml version="1.0" standalone="no"?>
<!DOCTYPE svg PUBLIC "-//W3C//DTD SVG 20010904//EN"
 "http://www.w3.org/TR/2001/REC-SVG-20010904/DTD/svg10.dtd">
<svg version="1.0" xmlns="http://www.w3.org/2000/svg"
 width="1284.000000pt" height="1284.000000pt" viewBox="0 0 1284.000000 1284.000000"
 preserveAspectRatio="xMidYMid meet">
<metadata>
Created by potrace 1.13, written by Peter Selinger 2001-2015
</metadata>
<g transform="translate(0.000000,1284.000000) scale(0.100000,-0.100000)"
fill="#000000" stroke="none">
<path d="M7294 12603 c-1 -16 -5 -92 -9 -171 -7 -127 -6 -144 9 -161 11 -12
13 -21 7 -25 -6 -4 -8 -13 -4 -21 3 -8 0 -15 -7 -15 -9 0 -10 -10 -5 -32 4
-18 8 -62 9 -98 2 -36 6 -77 10 -91 6 -18 1 -41 -14 -74 -15 -33 -21 -62 -18
-98 1 -29 -1 -58 -6 -66 -10 -15 -2 -22 56 -54 l33 -19 -28 -14 -27 -15 0
-194 c0 -224 9 -204 -113 -250 -59 -22 -83 -25 -192 -25 -184 0 -415 -37 -415
-67 0 -9 -7 -12 -17 -9 -102 29 -260 32 -443 6 -41 -6 -106 -10 -145 -9 -38 1
-110 -6 -160 -15 -49 -9 -155 -19 -235 -22 -80 -3 -189 -12 -242 -20 -99 -14
-488 -21 -508 -9 -17 11 -96 8 -119 -5 -14 -7 -21 -7 -21 0 0 16 -28 12 -38
-5 -11 -21 -106 -36 -217 -34 -90 1 -295 -23 -370 -43 -103 -28 -119 -28 -402
6 -18 2 -33 1 -33 -3 0 -5 -19 -13 -42 -20 -24 -7 -59 -17 -78 -23 -20 -7
-120 -12 -230 -13 -107 -1 -202 -5 -211 -9 -9 -4 -36 -8 -60 -10 -24 -2 -78
-9 -119 -16 -90 -15 -250 -6 -294 17 -29 15 -31 15 -51 -11 -18 -23 -28 -26
-80 -26 -32 0 -84 5 -115 12 -53 11 -58 10 -87 -12 -29 -21 -39 -22 -136 -18
-75 3 -112 1 -129 -8 -12 -7 -35 -13 -49 -14 -21 0 -49 -24 -126 -107 -178
-195 -382 -441 -481 -582 l-43 -61 118 0 c151 0 138 -16 -22 -27 l-120 -8 -48
-70 c-59 -86 -184 -282 -222 -350 -147 -260 -239 -438 -311 -605 -28 -64 -12
-46 53 60 74 119 154 240 203 305 45 58 75 105 102 155 31 58 141 220 146 215
5 -5 -2 -23 -46 -110 -51 -101 -137 -236 -154 -243 -5 -2 -8 -8 -8 -13 0 -5
-23 -37 -51 -71 -27 -35 -73 -101 -101 -148 -83 -140 -139 -223 -174 -260 -56
-59 -222 -510 -304 -825 -17 -66 -34 -129 -37 -140 -3 -11 25 23 62 75 64 90
125 166 125 156 0 -12 -80 -139 -131 -208 -71 -94 -73 -100 -89 -168 -6 -30
-14 -64 -17 -75 -3 -11 16 8 42 43 25 34 51 62 55 62 8 0 -66 -117 -95 -150
-11 -13 -65 -275 -65 -319 0 -11 20 3 61 41 59 56 79 69 79 48 0 -5 -4 -10 -9
-10 -4 0 -20 -17 -34 -37 -14 -21 -37 -50 -51 -65 -52 -55 -65 -94 -81 -262
-22 -235 -27 -224 55 -136 61 65 152 180 185 232 6 9 31 46 58 83 26 36 47 69
47 74 0 4 7 16 15 27 10 13 9 2 -6 -36 -11 -30 -24 -57 -28 -60 -3 -3 -12 -16
-19 -30 -35 -67 -79 -137 -100 -159 -8 -8 -31 -37 -51 -65 -37 -50 -75 -93
-146 -168 -35 -37 -35 -37 -35 -130 0 -51 -3 -111 -7 -133 l-6 -40 42 44 c24
24 40 49 37 57 -3 8 1 14 10 14 8 0 49 35 90 79 218 232 247 269 358 473 20
37 46 73 57 78 18 10 19 9 10 -7 -6 -10 -35 -67 -64 -128 -56 -114 -89 -169
-135 -220 -15 -17 -39 -46 -54 -65 -14 -19 -50 -60 -80 -91 -62 -65 -122 -135
-207 -241 -59 -75 -61 -80 -61 -136 0 -33 3 -87 7 -122 l6 -62 18 23 c10 13
19 27 19 31 0 4 12 24 26 45 14 21 39 63 54 93 16 30 43 71 60 90 l32 35 -20
-35 c-11 -19 -41 -75 -67 -125 -50 -94 -103 -178 -117 -183 -9 -4 -9 -93 1
-135 l6 -28 51 53 c61 64 105 127 137 199 14 30 39 85 56 123 31 69 165 278
209 325 12 13 22 31 22 39 0 12 3 13 12 4 9 -9 8 -16 -4 -29 -8 -10 -18 -30
-21 -44 -4 -14 -27 -57 -53 -95 -26 -38 -49 -76 -52 -84 -3 -8 -22 -39 -42
-70 -20 -30 -47 -75 -59 -100 -12 -25 -31 -60 -41 -77 -20 -33 -20 -33 1 -33
12 0 39 19 61 42 34 36 37 38 29 14 -30 -77 -173 -255 -206 -256 -11 0 -40
-41 -37 -52 1 -4 -4 -5 -11 -2 -8 3 -21 -9 -32 -29 -15 -28 -17 -46 -10 -120
7 -94 17 -105 50 -58 56 80 115 151 157 189 25 24 68 75 94 113 58 86 133 171
144 164 14 -9 5 23 -13 43 -29 32 -21 43 18 25 l36 -17 25 29 c39 45 80 96
111 137 47 63 218 257 222 253 2 -3 -2 -13 -10 -24 -8 -10 -57 -80 -109 -155
-52 -75 -114 -162 -137 -194 -24 -31 -48 -71 -54 -89 -9 -29 -13 -31 -36 -22
-18 7 -30 6 -41 -3 -8 -7 -18 -12 -21 -11 -3 1 -5 -5 -5 -13 1 -8 -2 -14 -7
-14 -5 0 -18 -19 -30 -42 -28 -54 -87 -134 -129 -173 -33 -31 -140 -187 -140
-205 0 -5 -4 -10 -9 -10 -5 0 -13 -9 -16 -20 -3 -11 -12 -26 -18 -33 -47 -50
-58 -78 -52 -125 11 -82 14 -87 33 -60 9 12 29 36 44 52 16 16 28 33 28 38 0
11 41 67 90 124 51 59 67 80 79 102 15 28 78 92 91 92 6 0 16 11 22 25 10 21
8 28 -8 41 -18 14 -17 15 12 9 28 -5 34 -1 80 56 27 34 56 73 64 87 8 13 24
35 35 47 11 12 58 67 104 123 47 56 87 100 89 97 2 -2 -11 -23 -30 -47 -60
-75 -124 -171 -163 -243 -53 -99 -86 -158 -100 -175 -7 -8 -23 -35 -36 -60
-13 -25 -33 -54 -44 -66 -29 -31 -46 -53 -85 -109 -19 -27 -38 -52 -41 -55 -3
-3 -16 -25 -30 -50 -13 -25 -26 -47 -30 -50 -3 -3 -13 -21 -22 -40 -10 -19
-31 -57 -48 -85 -16 -27 -32 -58 -36 -67 -3 -10 -9 -18 -13 -18 -4 0 -13 -18
-20 -39 -10 -32 -10 -51 1 -105 l13 -66 14 29 c22 47 57 47 68 1 4 -21 18 -40
30 -40 20 0 75 36 67 43 -3 4 1 7 10 7 10 0 16 3 16 8 -4 21 2 42 10 37 5 -3
16 1 24 9 8 8 17 12 21 9 3 -4 6 1 6 10 0 10 5 17 10 17 6 0 10 6 10 14 0 8 4
16 8 18 4 2 30 34 56 71 32 45 46 74 43 87 -4 14 0 20 11 20 10 0 49 44 92
102 41 55 79 106 85 112 108 118 285 333 336 408 23 35 47 68 53 73 6 6 26 33
45 60 19 28 41 57 48 65 7 8 22 26 33 40 16 20 19 22 20 8 0 -10 -4 -18 -8
-18 -5 0 -16 -17 -26 -37 -27 -57 -160 -255 -190 -282 -14 -14 -26 -28 -26
-33 0 -9 -32 -49 -73 -90 -15 -15 -27 -30 -27 -33 0 -3 -17 -24 -37 -46 -21
-22 -68 -90 -105 -149 -37 -60 -76 -119 -87 -132 -12 -12 -21 -25 -21 -29 0
-5 -11 -20 -24 -34 -14 -15 -36 -39 -50 -54 -14 -15 -26 -31 -26 -35 0 -5 -13
-21 -30 -36 -16 -15 -30 -33 -30 -39 0 -6 -4 -11 -10 -11 -14 0 -12 -37 3 -43
9 -4 9 -6 0 -6 -15 -1 -18 -61 -3 -61 6 0 10 5 10 11 0 12 26 43 78 91 17 17
32 35 32 41 0 5 11 18 25 29 14 11 25 26 25 34 0 8 5 14 11 14 12 0 41 31 121
127 28 35 53 61 55 59 7 -7 -73 -143 -101 -173 -14 -15 -26 -33 -26 -39 0 -6
-9 -19 -20 -29 -11 -10 -20 -22 -20 -27 0 -5 -9 -18 -20 -30 -11 -12 -26 -34
-32 -50 -7 -15 -16 -28 -20 -28 -5 0 -8 -5 -8 -12 0 -6 -6 -19 -14 -27 -7 -9
-35 -56 -61 -106 -26 -49 -55 -101 -64 -115 -30 -44 -42 -80 -28 -80 8 0 8 -3
-2 -9 -7 -5 -12 -14 -9 -21 3 -9 8 -8 20 4 9 9 22 16 29 16 10 0 99 87 99 97
0 15 62 62 85 65 20 2 30 9 30 20 0 10 15 31 33 47 20 19 32 39 32 55 0 17 4
24 14 20 8 -3 41 28 87 83 77 93 146 159 155 151 5 -6 -20 -52 -71 -133 -32
-50 -84 -144 -144 -260 -32 -61 -39 -95 -20 -95 5 0 7 -4 4 -10 -9 -14 1 -13
33 4 39 21 95 91 202 251 51 77 105 154 119 171 14 17 44 55 66 84 22 29 45
57 50 64 34 38 73 86 90 110 11 15 34 42 50 60 17 19 41 45 54 60 13 15 25 25
27 23 9 -8 -31 -72 -66 -106 -34 -32 -140 -174 -140 -186 0 -3 -7 -13 -16 -22
-34 -39 -148 -203 -195 -283 -68 -116 -69 -117 -112 -182 -20 -31 -48 -69 -62
-84 -14 -15 -28 -39 -32 -53 -3 -14 -14 -38 -24 -53 -11 -14 -19 -31 -19 -36
0 -5 -7 -22 -14 -38 -8 -15 -12 -32 -9 -38 3 -6 2 -8 -2 -3 -11 10 -45 -42
-38 -59 8 -22 41 -16 54 9 7 12 10 24 8 27 -2 3 5 6 16 8 11 2 30 13 43 25 12
11 22 17 22 12 0 -4 19 10 43 32 23 21 53 46 67 56 24 17 24 18 7 46 -9 16
-17 32 -17 35 0 10 48 7 55 -4 11 -17 22 -11 35 20 7 17 18 30 24 30 6 0 4 4
-4 10 -9 6 -20 5 -29 -3 -18 -14 2 20 53 89 17 23 46 67 64 98 35 58 171 244
210 286 20 22 100 134 127 178 6 10 12 19 15 22 3 3 22 24 43 48 20 23 37 38
37 33 0 -22 -43 -102 -84 -155 -25 -32 -46 -61 -46 -65 0 -3 -11 -19 -25 -34
-14 -15 -23 -27 -20 -27 2 0 -8 -12 -23 -27 -42 -42 -142 -175 -142 -189 0 -2
-11 -23 -26 -45 -46 -74 -64 -109 -84 -169 -11 -33 -29 -74 -40 -92 -26 -43
-26 -68 1 -68 22 0 40 18 91 89 17 24 38 52 47 62 9 9 27 33 41 53 25 35 40
45 40 27 0 -6 -5 -13 -11 -16 -5 -4 -15 -17 -20 -28 -5 -12 -17 -34 -27 -48
-9 -14 -27 -41 -39 -60 -12 -19 -27 -39 -32 -46 -6 -7 -11 -17 -11 -24 0 -6
-11 -22 -24 -34 -18 -16 -23 -29 -19 -45 4 -15 2 -21 -5 -16 -14 9 -72 -79
-72 -110 0 -14 -5 -23 -12 -22 -7 2 -13 -4 -13 -12 0 -22 36 -18 49 5 6 11 19
26 29 33 9 7 17 18 17 23 0 5 10 21 23 33 12 13 37 41 55 62 38 44 51 40 27
-8 -38 -71 -38 -83 0 -111 26 -19 31 -16 70 35 57 73 143 177 162 194 13 12
23 29 23 38 0 9 8 16 18 16 19 0 122 102 122 120 0 14 70 9 71 -5 0 -5 6 4 12
22 16 41 128 211 145 218 8 3 7 -5 -4 -28 -17 -32 -93 -148 -103 -157 -28 -24
-39 -78 -19 -98 14 -14 45 -16 50 -3 13 38 178 208 178 184 0 -4 -36 -51 -80
-103 -43 -52 -79 -101 -80 -107 0 -7 -4 -13 -8 -13 -10 0 -60 -90 -123 -225
-18 -38 -62 -119 -98 -178 -36 -60 -72 -120 -80 -135 -8 -15 -18 -29 -23 -30
-4 -2 -6 -8 -2 -13 3 -5 0 -9 -7 -9 -7 0 -5 -8 6 -20 23 -25 47 -25 63 0 7 12
23 20 40 20 34 0 67 33 76 76 4 18 16 40 27 50 10 9 19 22 19 27 0 14 82 137
91 137 4 0 9 9 12 20 6 23 37 27 37 6 0 -8 -4 -17 -9 -21 -5 -3 -17 -27 -26
-53 -10 -26 -20 -56 -24 -67 -8 -22 -35 -81 -75 -164 -40 -83 -36 -102 25
-136 l52 -28 18 24 c35 44 149 224 147 230 -4 8 29 39 41 39 13 0 15 -37 2
-45 -5 -3 -12 -19 -16 -35 -4 -17 -10 -30 -14 -30 -8 0 -89 -159 -92 -180 -4
-36 3 -48 32 -61 31 -12 33 -11 62 22 16 19 42 48 57 64 15 17 50 66 79 108
43 63 58 77 79 78 15 0 21 3 15 6 -7 2 -13 14 -12 26 0 12 3 16 6 9 2 -6 8
-10 11 -8 4 2 13 -2 20 -10 7 -8 8 -14 2 -14 -5 0 -10 -13 -10 -30 0 -16 -4
-30 -8 -30 -4 0 -15 -12 -24 -28 -9 -15 -29 -41 -45 -58 -101 -110 -126 -141
-137 -163 -6 -15 -21 -37 -33 -50 -12 -13 -29 -42 -40 -65 -10 -23 -21 -45
-26 -51 -20 -26 -85 -134 -98 -163 -7 -17 -17 -32 -21 -32 -5 0 -8 -4 -8 -9 0
-5 -14 -33 -32 -61 -30 -49 -31 -51 -12 -65 28 -21 53 -18 64 9 4 13 19 32 32
42 25 21 108 138 108 153 0 6 8 16 18 23 10 7 51 58 92 113 41 55 94 120 118
144 41 44 42 44 42 17 0 -17 -7 -29 -19 -34 -19 -7 -21 -10 -21 -32 0 -5 -10
-20 -23 -33 -24 -25 -30 -34 -77 -113 -36 -61 -35 -60 -11 -67 15 -4 32 10 67
52 26 31 61 67 76 80 l29 23 -22 -41 c-11 -23 -25 -43 -30 -46 -12 -8 -119
-174 -119 -185 0 -6 -3 -10 -7 -10 -5 0 -19 -24 -33 -53 -14 -28 -27 -54 -30
-57 -23 -21 -49 -72 -52 -102 l-3 -36 -225 112 c-204 100 -274 132 -535 243
-44 19 -110 48 -146 65 -36 16 -72 29 -80 27 -15 -4 -104 -99 -149 -160 -14
-18 -40 -50 -57 -70 -18 -20 -33 -42 -33 -49 0 -33 205 -386 353 -610 163
-245 388 -532 595 -758 l85 -93 27 48 c51 92 152 228 132 178 -14 -38 -65
-130 -102 -186 l-38 -57 132 -129 c168 -167 285 -270 471 -419 169 -135 278
-214 294 -214 6 0 11 -4 11 -9 0 -10 289 -201 425 -281 155 -91 369 -198 385
-193 8 3 12 2 8 -2 -12 -12 14 -27 186 -105 211 -95 254 -111 261 -100 10 16
22 12 27 -8 4 -14 46 -34 149 -72 220 -82 443 -149 450 -136 9 16 18 70 29
181 5 55 19 181 30 280 17 154 36 478 54 932 4 102 3 113 -13 118 -11 3 -95
-23 -192 -59 -201 -74 -256 -98 -290 -125 l-25 -20 -41 47 c-22 26 -103 93
-179 149 -77 57 -172 132 -211 167 -123 111 -330 261 -653 474 -312 205 -345
228 -531 357 -95 66 -192 138 -215 160 -39 38 -41 43 -47 114 -7 81 -15 95
-87 144 -54 37 -64 49 -45 60 8 4 28 29 46 55 241 355 382 590 440 734 54 134
229 650 229 675 0 10 72 222 109 323 27 72 110 237 126 250 8 7 15 19 15 26 0
8 5 14 10 14 6 0 11 12 11 28 l1 27 7 -30 8 -30 13 27 c7 14 18 24 24 22 7 -3
24 8 38 23 14 15 40 39 57 53 18 14 51 43 74 66 23 23 58 49 77 59 19 10 75
60 125 111 49 52 96 94 103 94 6 0 12 5 12 10 0 6 9 10 19 10 11 0 21 4 23 9
4 13 38 16 71 6 37 -10 75 7 128 58 51 48 69 55 69 27 0 -24 8 -25 34 -5 11 8
26 15 35 15 16 0 58 44 94 99 13 20 47 71 75 114 29 43 52 82 52 87 0 6 4 10
9 10 5 0 14 13 21 30 7 16 15 28 19 25 4 -2 28 -5 54 -6 26 -2 47 -6 47 -11 0
-4 18 -8 39 -8 22 0 42 -5 44 -12 3 -7 6 -2 7 12 1 14 4 20 6 14 5 -12 44 -7
44 6 0 15 88 110 102 110 13 0 0 -35 -44 -118 -59 -111 -62 -116 -80 -130 -10
-7 -32 -34 -50 -60 -18 -26 -42 -58 -55 -72 -13 -14 -23 -28 -23 -32 0 -3 -6
-13 -12 -20 -43 -46 -158 -211 -158 -226 0 -5 -11 -26 -25 -45 -25 -38 -58
-95 -105 -182 -15 -27 -37 -68 -50 -90 -41 -71 -58 -109 -75 -168 -9 -32 -23
-64 -31 -72 -8 -7 -14 -21 -14 -29 0 -9 -4 -16 -10 -16 -5 0 -15 -18 -21 -40
-7 -22 -16 -40 -21 -40 -4 0 -8 -6 -8 -14 0 -7 -7 -19 -16 -27 -19 -16 -57
-89 -50 -96 15 -15 160 170 237 303 23 38 104 160 247 371 57 84 82 114 82 98
0 -14 -66 -134 -109 -199 -26 -39 -65 -100 -86 -136 -83 -141 -279 -447 -295
-460 -16 -14 -78 -147 -72 -157 4 -5 34 -18 67 -27 33 -10 73 -26 89 -38 l28
-20 35 38 c19 22 48 60 65 86 16 27 35 51 42 55 7 5 32 30 56 56 41 46 42 48
24 62 -18 14 -17 14 11 10 28 -4 37 4 130 115 55 66 103 120 107 120 18 0 6
-30 -22 -58 -17 -17 -30 -34 -30 -38 0 -3 -31 -39 -69 -78 -39 -39 -82 -88
-98 -108 -70 -91 -114 -146 -147 -183 -20 -22 -36 -43 -36 -46 0 -3 -11 -18
-25 -33 -14 -15 -25 -34 -25 -42 0 -7 -7 -14 -15 -14 -8 0 -15 -7 -15 -16 0
-9 -5 -12 -12 -8 -8 5 -9 0 -5 -17 6 -24 -11 -79 -25 -79 -13 0 -9 -28 5 -33
7 -3 5 -6 -5 -6 -10 -1 -18 4 -18 10 0 5 -5 7 -10 4 -6 -4 -18 -1 -26 6 -8 6
-16 10 -18 8 -22 -25 -96 -144 -96 -154 0 -7 -3 -15 -7 -17 -13 -5 -53 -88
-53 -108 0 -10 8 -21 18 -25 11 -3 43 -23 72 -45 29 -22 69 -45 88 -51 39 -13
32 -18 97 66 56 71 96 94 87 49 -6 -32 15 -59 34 -43 19 16 17 24 -8 37 -20
10 -19 11 13 6 34 -5 37 -4 88 67 29 39 55 78 58 85 3 8 11 14 19 14 7 0 25
15 41 34 27 34 43 38 43 10 0 -8 -6 -14 -13 -14 -8 0 -29 -24 -47 -53 -19 -28
-43 -64 -54 -78 -12 -14 -32 -40 -46 -59 -14 -18 -30 -39 -37 -45 -6 -7 -22
-28 -35 -46 -35 -52 -169 -209 -178 -209 -4 0 -17 -15 -29 -33 -31 -48 -92
-130 -110 -147 -9 -8 -17 -21 -19 -29 -5 -22 -31 -43 -47 -37 -8 3 -15 1 -15
-3 0 -5 6 -12 13 -14 9 -4 9 -6 0 -6 -7 -1 -13 -8 -13 -16 0 -8 -4 -15 -10
-15 -5 0 -10 -6 -10 -14 0 -9 7 -13 19 -11 27 5 18 -27 -28 -100 -13 -22 -40
-69 -58 -105 -45 -86 -57 -106 -74 -127 -9 -10 -30 -49 -49 -88 -19 -38 -42
-82 -52 -97 -10 -14 -18 -33 -18 -41 0 -17 43 -32 49 -16 3 11 115 161 162
219 16 19 29 40 29 47 0 7 6 16 13 20 25 16 187 231 187 248 0 14 76 104 98
116 16 9 22 20 20 37 -2 16 4 29 17 36 25 14 75 65 75 77 0 5 5 9 10 9 6 0 10
-7 10 -15 0 -8 -5 -15 -11 -15 -5 0 -8 -4 -5 -9 3 -5 -4 -20 -15 -35 -12 -16
-19 -37 -17 -53 2 -20 -1 -27 -11 -25 -31 7 -58 -9 -74 -43 -10 -20 -68 -104
-130 -188 -110 -149 -172 -239 -196 -285 -13 -25 -34 -53 -63 -83 -9 -9 -14
-20 -10 -23 3 -3 1 -6 -5 -6 -6 0 -16 -13 -23 -30 -7 -16 -18 -30 -24 -30 -6
0 -4 -5 4 -10 12 -8 12 -10 -5 -11 l-20 0 20 -9 c19 -8 19 -9 -2 -9 -13 -1
-23 -5 -23 -11 0 -5 -9 -10 -20 -10 -11 0 -19 -4 -18 -9 2 -5 1 -8 -2 -7 -16
4 -37 -34 -39 -72 -3 -68 -8 -71 -152 -82 -3 0 -16 -9 -29 -20 -16 -14 -18
-20 -8 -20 8 0 65 -7 127 -15 62 -8 201 -19 310 -25 326 -17 525 -45 828 -117
84 -19 159 -33 168 -30 10 5 16 21 17 54 1 26 2 68 3 93 1 25 5 131 9 235 4
105 11 250 17 324 8 96 7 158 -1 219 -19 144 6 290 48 278 9 -3 40 -10 67 -16
28 -7 60 -17 72 -23 13 -5 26 -8 29 -4 9 9 21 79 17 98 -4 18 -156 109 -182
109 -19 0 -31 -34 -46 -130 -9 -55 -15 -66 -26 -49 -22 35 -3 153 81 519 11
47 36 162 55 255 108 516 148 665 195 720 10 11 40 56 68 100 28 44 70 106 92
137 68 95 99 165 114 262 8 50 12 113 10 140 -4 53 -44 183 -84 271 -127 280
-225 427 -358 535 -48 39 -105 87 -128 105 -22 19 -58 63 -79 97 -93 153 -162
247 -252 346 -13 14 -39 54 -59 91 -20 36 -51 87 -69 112 -18 25 -43 65 -57
90 -26 46 -77 133 -115 197 -31 50 -29 78 9 121 40 47 68 62 90 50 11 -6 19
-5 24 3 8 12 42 -71 43 -106 1 -24 47 -117 69 -142 25 -27 102 -131 137 -184
16 -25 44 -64 61 -88 29 -38 39 -73 21 -72 -13 1 -105 -49 -112 -61 -17 -26
14 -31 69 -10 l56 21 35 -73 c19 -39 35 -78 35 -85 0 -15 19 -49 43 -76 9 -11
17 -26 17 -33 0 -7 3 -13 8 -13 4 0 18 -18 32 -40 13 -22 78 -90 144 -152 172
-162 202 -194 252 -273 57 -89 113 -184 113 -191 -1 -3 13 -33 29 -67 27 -56
45 -102 87 -222 28 -79 36 -169 25 -269 -6 -53 -17 -106 -23 -118 -20 -38 -51
-83 -62 -90 -5 -4 -6 -8 -2 -8 4 0 -2 -10 -13 -22 -29 -31 -43 -58 -31 -58 5
0 13 5 16 10 3 6 12 10 18 10 9 0 9 -2 1 -8 -27 -18 -52 -84 -74 -202 -4 -25
-11 -61 -15 -82 -5 -26 -3 -43 8 -58 13 -19 13 -29 1 -79 -14 -64 -61 -206
-76 -234 -12 -23 -1 -37 12 -17 23 35 9 -99 -19 -186 -16 -50 -34 -131 -41
-180 -11 -85 -42 -247 -75 -399 -9 -38 -16 -88 -16 -110 0 -50 -36 -199 -59
-245 -9 -19 -23 -57 -29 -85 -7 -27 -24 -78 -37 -113 -24 -62 -28 -94 -39
-302 -9 -179 -25 -405 -36 -490 -17 -146 -17 -149 -3 -161 7 -6 51 -17 96 -24
79 -12 139 -22 378 -65 58 -10 166 -28 240 -40 74 -12 178 -31 230 -42 111
-25 311 -31 331 -10 7 6 19 12 27 12 30 0 181 81 187 100 8 24 47 27 65 5 10
-12 9 -15 -5 -15 -9 0 -47 -20 -84 -44 -94 -63 -142 -81 -376 -146 -44 -13
-136 -40 -205 -62 -69 -21 -163 -50 -210 -64 -141 -43 -347 -112 -490 -164
-74 -26 -144 -50 -155 -52 -33 -5 -44 -46 -46 -168 -1 -62 -5 -126 -9 -141 -5
-17 -4 -29 1 -31 6 -2 6 -54 -2 -141 -7 -86 -8 -146 -3 -160 10 -23 -3 -227
-15 -227 -3 0 -5 123 -3 272 2 161 -1 289 -7 313 -6 22 -13 72 -17 110 -7 88
-14 96 -15 19 -1 -98 -7 -150 -25 -244 -2 -8 -6 -143 -9 -300 -3 -157 -12
-328 -20 -380 -7 -52 -19 -149 -25 -215 -6 -66 -18 -160 -25 -210 -7 -49 -12
-91 -10 -93 2 -2 43 -14 92 -28 241 -66 763 -161 830 -151 17 3 33 2 35 -3 3
-9 193 -30 275 -30 52 0 55 1 69 35 8 19 19 35 24 35 15 0 8 -53 -9 -66 -16
-12 160 -24 371 -24 l127 0 38 42 c21 22 48 53 61 67 67 77 102 112 102 103 0
-5 -9 -17 -20 -27 -11 -10 -20 -23 -20 -29 0 -6 -25 -37 -55 -69 -30 -31 -55
-63 -55 -69 0 -23 393 6 720 53 402 57 882 180 1270 326 l155 58 3 65 c4 72
-9 185 -39 360 -23 126 -27 284 -10 369 27 132 -3 484 -53 646 -9 28 -30 109
-47 180 -33 138 -35 223 -6 253 13 12 16 5 27 -57 11 -61 15 -68 26 -53 7 9
11 26 9 37 -2 11 -7 37 -10 58 -4 28 -11 37 -25 37 -11 0 -19 3 -18 8 6 28
-48 167 -86 220 -56 78 -134 168 -161 186 -38 25 -26 40 36 48 71 9 154 24
209 38 25 6 62 13 83 17 21 3 40 10 43 14 3 5 20 9 39 9 19 0 37 4 40 10 3 5
15 10 26 10 10 0 28 4 39 10 11 5 29 15 40 20 11 5 28 10 38 10 10 0 22 4 27
8 13 11 71 29 119 37 33 5 38 4 32 -10 -3 -9 -6 -32 -6 -51 0 -19 -4 -34 -9
-34 -4 0 -6 11 -3 25 5 30 -8 32 -33 5 -14 -15 -15 -20 -4 -20 11 0 11 -2 -1
-10 -13 -9 -13 -10 0 -11 8 -1 21 -1 29 0 7 2 10 -2 6 -8 -3 -6 -1 -11 6 -11
13 0 10 -23 -20 -129 -21 -73 -30 -231 -13 -231 13 0 8 -323 -6 -347 -6 -12
-12 -37 -12 -56 0 -19 -7 -54 -16 -78 -18 -50 -13 -103 12 -130 23 -26 42 -24
50 5 3 14 13 25 22 25 36 2 108 10 127 15 11 2 33 5 48 5 15 1 30 7 33 15 6
15 -26 66 -74 117 -17 19 -32 38 -32 42 0 5 -4 5 -10 2 -5 -3 -10 -1 -10 4 0
6 6 11 13 11 9 0 9 2 -1 9 -11 7 -11 9 2 14 9 4 16 1 17 -6 0 -7 4 -3 9 8 5
11 9 14 9 7 1 -10 4 -10 15 0 10 9 11 15 2 20 -7 5 -6 8 4 8 13 0 13 1 0 10
-10 6 -11 10 -2 10 8 0 12 21 12 69 0 46 4 71 13 74 9 4 8 6 -2 6 -10 1 -7 7
7 20 12 10 19 21 15 25 -3 3 1 6 10 6 9 0 16 3 16 8 -4 22 2 42 11 37 6 -3 10
-1 10 6 0 6 18 33 40 59 22 26 40 52 40 56 0 5 10 21 23 36 119 142 157 210
157 285 0 28 5 55 10 58 17 10 11 25 -10 25 -22 0 -27 27 -11 58 5 9 14 29 22
45 9 20 20 27 43 28 30 1 30 1 6 9 -14 4 -19 8 -12 9 6 1 12 6 12 13 0 6 7 20
17 30 15 17 17 17 35 2 10 -10 18 -12 18 -6 0 6 -5 12 -11 14 -19 6 12 46 46
58 24 9 34 7 57 -10 15 -11 32 -20 37 -20 13 0 51 -77 51 -102 0 -10 4 -26 9
-36 13 -26 30 -83 37 -126 3 -22 10 -50 15 -64 5 -14 14 -45 20 -71 10 -44 45
-135 75 -194 8 -16 14 -37 14 -47 0 -10 4 -21 9 -24 5 -3 12 -22 15 -41 4 -20
11 -33 17 -30 5 4 9 5 10 3 0 -2 3 -25 6 -52 6 -52 19 -69 80 -103 18 -9 35
-14 39 -10 11 11 23 88 24 152 0 33 7 92 15 130 9 39 18 113 21 165 2 52 7
106 10 120 4 14 7 43 8 64 1 22 7 41 14 44 7 2 12 13 13 25 0 12 6 -3 13 -33
6 -30 8 -57 4 -60 -3 -3 0 -13 7 -23 13 -18 13 -18 18 0 4 17 5 17 6 0 0 -10
6 -15 11 -12 6 3 10 2 10 -4 0 -6 7 -8 15 -5 8 4 15 19 15 34 0 23 4 28 20 25
11 -2 25 4 32 13 19 25 47 25 93 2 21 -11 45 -20 51 -20 7 0 15 -7 18 -16 3
-8 40 -30 81 -49 41 -19 75 -36 75 -39 0 -8 -83 15 -120 34 -46 23 -80 26 -80
6 0 -8 -4 -16 -10 -18 -5 -1 -11 -15 -12 -30 -1 -16 -5 -28 -8 -28 -3 0 -7
-11 -8 -25 -1 -14 4 -25 11 -25 8 0 7 -4 -3 -10 -11 -7 -6 -10 22 -10 20 0 38
5 40 12 7 20 56 -7 70 -37 6 -14 37 -40 67 -57 31 -18 86 -51 123 -75 36 -24
71 -43 77 -43 6 0 11 -4 11 -9 0 -4 21 -19 48 -32 57 -29 82 -54 89 -91 3 -16
9 -28 14 -28 5 0 9 -9 9 -20 0 -11 5 -20 10 -20 6 0 9 -3 9 -7 -7 -44 21 -43
55 2 20 26 24 38 17 52 -25 45 -92 217 -110 284 -11 41 -46 151 -77 244 -31
94 -58 180 -60 193 -3 12 -16 53 -30 90 -14 37 -36 110 -50 162 -14 52 -29 99
-32 105 -4 5 -7 15 -8 20 -1 6 -13 35 -27 65 -14 30 -39 96 -55 145 -17 50
-43 121 -57 159 -14 37 -30 102 -36 143 -10 74 -57 230 -86 287 -9 17 -35 52
-58 77 -24 25 -52 64 -63 86 -26 50 -38 113 -24 122 6 3 12 13 14 21 5 22 38
50 52 44 7 -3 19 -16 26 -30 7 -13 16 -24 20 -24 4 0 14 -24 23 -52 27 -88 44
-139 81 -243 19 -55 35 -109 36 -121 0 -11 12 -63 26 -115 14 -51 30 -118 36
-147 5 -28 14 -52 18 -52 4 0 10 -15 13 -32 10 -63 36 -138 76 -220 36 -75 60
-145 124 -353 12 -38 24 -72 27 -75 6 -5 41 -115 60 -190 7 -25 16 -53 21 -62
5 -10 9 -24 9 -31 0 -17 37 -132 55 -172 7 -16 21 -52 30 -78 9 -26 29 -70 44
-96 16 -26 32 -58 36 -69 3 -12 10 -22 14 -22 12 0 183 237 295 407 151 231
264 429 354 618 28 60 29 66 10 45 -42 -47 -85 -105 -103 -140 -10 -19 -26
-46 -35 -60 -10 -14 -47 -70 -83 -125 -36 -55 -75 -110 -86 -122 -12 -12 -21
-26 -21 -31 0 -12 -111 -122 -123 -122 -5 0 4 16 19 35 48 57 68 85 142 195
39 58 79 114 89 125 10 11 29 40 41 65 23 48 167 246 216 297 84 89 353 828
421 1159 9 43 18 80 20 84 8 12 67 308 85 425 18 118 18 121 -1 151 -22 36
-25 84 -6 84 33 0 45 35 56 170 6 74 13 150 16 167 2 18 0 35 -4 37 -19 12
-181 -105 -181 -131 0 -6 14 -16 30 -23 17 -7 33 -22 36 -35 6 -24 -10 -65
-25 -65 -5 0 -33 28 -61 62 -35 42 -78 117 -132 228 -65 135 -91 176 -137 225
-87 91 -131 157 -120 178 14 25 36 21 43 -7 10 -40 63 -71 118 -69 27 1 58 7
70 13 22 11 22 10 4 -4 -11 -9 -17 -16 -13 -16 4 0 -2 -16 -13 -35 -24 -42
-26 -78 -5 -95 15 -13 57 5 103 44 24 21 71 25 146 12 25 -4 48 -1 68 8 21 11
36 12 54 6 13 -5 24 -8 25 -7 7 21 5 43 -4 49 -9 6 -9 12 1 28 6 11 12 31 12
44 0 21 -6 26 -37 31 -132 21 -259 60 -373 114 -67 32 -108 39 -126 21 -7 -7
-38 8 -95 44 -80 50 -84 55 -87 92 -2 33 -12 48 -64 96 -73 69 -75 96 -7 118
38 13 44 12 80 -8 34 -20 39 -20 53 -6 13 12 86 155 86 167 0 8 -46 5 -58 -5
-11 -10 -13 -8 -10 6 6 35 -40 56 -126 59 l-79 2 -10 -29 c-13 -38 12 -59 59
-50 18 3 47 3 64 -1 l32 -7 -50 -29 c-28 -16 -58 -39 -67 -51 l-16 -23 -24 30
c-13 16 -29 51 -35 77 -5 26 -23 76 -38 111 -25 54 -36 66 -76 87 -41 22 -50
32 -65 75 -9 28 -31 71 -49 97 -17 26 -32 50 -32 54 0 4 -6 15 -14 23 -8 9
-35 58 -61 108 -26 51 -51 95 -56 99 -5 3 -9 12 -9 21 0 9 -11 31 -25 49 -14
18 -27 46 -29 61 -8 52 -36 130 -56 153 -11 13 -20 31 -20 42 0 10 -4 18 -10
18 -5 0 -10 10 -10 23 0 16 -3 18 -9 8 -10 -15 -7 -17 -75 44 -22 19 -45 35
-50 35 -6 0 -24 11 -40 24 l-30 23 27 81 c30 89 32 113 16 129 -6 6 -11 17
-13 24 -1 8 -6 25 -10 38 -6 18 -10 21 -17 10 -6 -9 -9 0 -10 29 -2 52 -1 48
-26 103 -11 25 -41 72 -66 105 -25 32 -67 99 -92 149 -25 49 -56 99 -68 110
-12 11 -35 38 -51 60 -16 22 -41 54 -56 70 -15 17 -31 43 -34 59 -4 16 -20 48
-35 70 -15 23 -37 72 -49 109 -16 49 -37 85 -77 132 -30 36 -71 95 -90 132
-55 105 -88 159 -112 185 -13 14 -23 28 -23 32 0 12 -61 98 -93 131 -16 17
-35 44 -42 60 -8 17 -25 37 -39 45 -14 7 -28 21 -32 32 -3 10 -11 18 -17 18
-13 1 -47 49 -89 128 -21 40 -24 52 -13 52 30 0 18 69 -25 134 -38 58 -99 145
-110 156 -7 7 -28 50 -40 83 -5 16 -14 25 -20 22 -6 -3 -10 4 -10 17 -1 21 -1
22 -11 4 -8 -13 -8 -25 2 -42 23 -45 1 -36 -32 13 -18 26 -48 68 -67 93 -19
24 -38 53 -42 65 -5 11 -36 56 -69 100 -66 87 -74 116 -38 146 12 10 16 18 10
19 -7 0 -13 9 -13 19 0 11 -10 32 -23 48 -12 15 -41 56 -62 91 -22 34 -63 87
-92 119 -29 31 -60 72 -70 92 -10 20 -37 63 -59 96 -23 33 -44 70 -48 83 -19
60 -52 -1 -80 -148 -8 -41 -18 -84 -21 -95 -6 -16 -5 -17 4 -5 22 30 14 -123
-21 -392 -8 -69 -14 -85 -25 -81 -8 3 -11 9 -6 12 10 8 16 87 9 117 -4 14 -32
37 -83 66 -43 24 -88 51 -100 58 -21 14 -26 12 -68 -30 -42 -41 -62 -72 -79
-122 -3 -11 -15 -18 -32 -18 -21 0 -24 3 -15 13 6 8 8 17 5 20 -3 3 -1 12 6
19 6 7 20 27 30 43 11 17 26 39 35 51 15 20 13 22 -32 50 -27 17 -60 38 -75
48 l-27 18 -6 -29 c-13 -57 -51 -132 -73 -144 -19 -11 -36 -9 -100 10 -80 23
-116 42 -166 85 -16 14 -32 23 -37 21 -15 -10 -3 -81 25 -140 36 -78 40 -87
67 -170 26 -83 73 -187 105 -235 13 -19 24 -43 24 -53 0 -10 7 -20 16 -24 11
-4 13 -13 9 -34 -5 -21 -3 -29 8 -29 7 0 14 -6 15 -12 2 -28 21 -89 30 -101
12 -15 39 -117 47 -178 4 -30 14 -54 28 -66 28 -26 261 -203 293 -223 13 -8
43 -36 66 -62 24 -26 78 -85 121 -130 43 -47 77 -92 77 -103 0 -26 34 -49 48
-32 6 7 25 69 43 140 30 116 35 127 56 127 16 0 28 -11 44 -41 45 -89 59 -156
59 -281 0 -77 4 -117 10 -113 13 8 50 84 50 102 0 19 27 16 50 -7 39 -39 79
-155 95 -275 4 -27 11 -67 17 -89 5 -21 13 -129 18 -240 9 -215 9 -214 83
-376 21 -48 36 -96 43 -145 5 -28 4 -28 -17 10 -12 22 -33 54 -45 71 -13 17
-24 36 -24 43 0 15 -66 81 -74 74 -3 -4 -6 -1 -6 6 0 7 -4 9 -10 6 -5 -3 -10
-1 -10 4 0 6 -8 11 -17 11 -14 0 -15 -2 -4 -9 9 -6 10 -10 2 -12 -7 -3 -12
-27 -13 -54 0 -28 -3 -44 -5 -37 -3 6 -12 12 -21 12 -15 0 -15 -2 -2 -10 13
-9 13 -10 0 -10 -10 0 -11 -3 -4 -8 9 -5 8 -11 -2 -20 -9 -8 -14 -9 -14 -2 0
6 -4 9 -9 6 -10 -7 -51 27 -51 43 0 6 5 11 10 11 6 0 10 9 10 19 0 11 5 23 10
26 6 3 10 15 10 27 0 19 1 20 25 4 13 -9 26 -16 28 -16 8 0 -2 428 -11 451 -6
15 -37 73 -69 130 -32 57 -71 129 -86 159 -30 59 -192 237 -201 221 -4 -5 -2
-12 4 -16 5 -3 7 -17 4 -30 -3 -12 -1 -26 5 -29 6 -4 11 -18 11 -32 0 -14 4
-22 10 -19 6 3 10 -3 10 -14 0 -12 5 -21 10 -21 6 0 10 -6 10 -14 0 -7 14 -27
30 -44 17 -18 30 -35 30 -39 0 -5 14 -22 30 -40 17 -18 30 -39 30 -47 0 -9 4
-16 9 -16 5 0 12 -8 15 -17 2 -10 8 -29 12 -43 5 -20 -8 -11 -63 41 -137 129
-377 268 -798 464 -161 74 -342 119 -414 103 -287 -64 -310 -72 -471 -159
-101 -54 -182 -96 -230 -118 -19 -8 -46 -23 -59 -33 -23 -17 -86 -39 -126 -44
-33 -4 -95 -28 -95 -37 0 -5 -5 -5 -11 -2 -6 4 -19 -2 -30 -14 -11 -12 -25
-21 -31 -21 -7 0 -7 -4 1 -13 7 -10 7 -17 0 -24 -8 -8 -8 -13 0 -17 6 -4 11
-18 11 -32 0 -13 5 -24 10 -24 6 0 10 -7 10 -16 0 -8 17 -22 38 -30 20 -8 46
-19 57 -24 46 -20 143 -50 163 -50 12 0 22 -4 22 -10 0 -5 12 -10 28 -11 15 0
45 -11 67 -24 22 -13 55 -32 73 -41 17 -10 32 -22 32 -27 0 -19 33 -39 102
-63 40 -14 98 -39 128 -56 81 -45 121 -65 158 -80 17 -7 32 -17 32 -21 0 -5 4
-6 9 -2 12 7 51 -33 51 -52 0 -7 3 -12 8 -12 20 3 33 -2 27 -11 -11 -17 32
-53 285 -239 19 -14 57 -41 85 -60 27 -19 54 -38 60 -43 5 -4 39 -30 75 -58
36 -27 70 -53 75 -58 6 -4 26 -19 45 -32 19 -14 43 -33 54 -42 11 -10 24 -18
28 -18 5 0 21 -12 36 -26 55 -53 168 -131 197 -137 17 -3 50 -11 75 -17 100
-25 99 -25 135 14 18 20 40 36 49 36 9 0 16 5 16 12 0 6 3 9 6 5 6 -6 54 37
54 49 0 4 10 16 23 28 13 12 26 29 30 39 8 20 54 23 77 4 9 -7 31 -42 50 -79
49 -95 53 -99 107 -110 133 -27 312 -72 418 -104 44 -13 135 -35 202 -49 207
-41 285 -69 384 -136 57 -38 119 -101 119 -121 0 -5 15 -31 33 -57 18 -25 41
-63 51 -84 28 -54 43 -64 61 -41 16 22 65 149 65 170 0 8 4 14 9 14 6 0 8 8 6
18 -2 10 1 25 6 33 6 10 9 2 9 -23 0 -21 -4 -38 -10 -38 -5 0 -10 -13 -10 -28
0 -42 -27 -126 -49 -150 -11 -13 -16 -31 -14 -46 4 -18 -3 -29 -28 -47 -32
-22 -32 -22 -27 -2 4 14 -2 28 -16 41 -11 10 -29 32 -38 48 -28 47 -42 67 -66
93 -12 15 -25 33 -28 41 -7 22 -115 88 -171 106 -26 9 -57 19 -68 24 -47 20
-125 30 -195 24 -41 -3 -122 -7 -180 -8 -120 -4 -215 -19 -274 -46 -23 -10
-54 -22 -71 -28 -16 -6 -60 -22 -97 -36 -80 -31 -121 -33 -155 -6 -14 11 -39
20 -55 20 -34 0 -98 -25 -98 -39 0 -5 -6 -16 -13 -23 -12 -13 -67 -164 -67
-185 0 -7 26 -32 58 -56 138 -106 291 -179 527 -253 193 -60 250 -82 302 -116
23 -15 45 -28 50 -28 4 0 22 -12 40 -28 24 -20 31 -33 27 -48 -4 -17 3 -28 33
-50 21 -16 59 -45 84 -66 l47 -38 32 37 c18 20 72 98 121 173 125 194 142 217
147 202 4 -13 -61 -136 -117 -221 -61 -92 -65 -97 -108 -146 -45 -50 -51 -69
-30 -94 7 -9 20 -36 27 -61 8 -25 27 -67 42 -93 15 -26 28 -54 28 -61 0 -8 7
-19 15 -26 19 -16 19 -30 1 -30 -21 0 -56 50 -107 150 -55 106 -105 157 -200
202 -87 41 -156 59 -356 93 -218 37 -256 52 -234 93 9 17 16 18 63 10 45 -8
54 -7 65 8 7 10 13 13 13 7 0 -5 38 -15 84 -22 46 -6 109 -18 141 -26 65 -17
82 -14 36 6 -17 8 -31 17 -31 20 0 11 -142 71 -214 90 -39 11 -98 22 -131 25
-33 3 -89 11 -125 19 -180 39 -230 46 -251 35 -11 -6 -39 -10 -62 -8 -33 2
-42 -1 -45 -15 -5 -24 -22 -21 -22 4 0 15 -4 19 -16 15 -9 -3 -27 -6 -40 -6
-15 0 -24 -6 -24 -16 0 -8 -4 -12 -10 -9 -5 3 -10 -1 -10 -9 0 -9 9 -16 20
-16 11 0 20 -4 20 -9 0 -10 -32 -7 -113 9 -49 10 -67 7 -67 -11 0 -5 -37 -47
-83 -92 -86 -86 -94 -95 -144 -168 -17 -25 -38 -51 -47 -58 -31 -26 -15 6 32
65 156 195 162 208 99 225 -28 8 -61 -15 -72 -51 -3 -11 -11 -20 -16 -20 -5 0
-9 -7 -9 -15 0 -14 -72 -88 -225 -232 -36 -35 -69 -63 -72 -63 -3 0 -3 9 0 20
4 16 -2 22 -34 30 -21 6 -39 15 -39 20 0 6 -6 10 -14 10 -8 0 -23 11 -34 25
-11 13 -22 21 -26 18 -3 -3 -6 -1 -6 6 0 28 -53 61 -180 110 -74 29 -155 61
-180 70 -25 10 -103 38 -175 61 -71 23 -155 57 -185 74 -30 18 -76 42 -102 54
-26 12 -62 34 -80 49 -52 43 -52 44 -233 128 -33 16 -68 35 -77 43 -16 13 -20
13 -38 -3 -11 -10 -20 -26 -20 -36 0 -10 -4 -21 -10 -24 -5 -3 -10 -15 -10
-26 0 -10 -6 -19 -12 -19 -9 0 -8 -4 2 -10 13 -9 13 -10 0 -10 -13 0 -13 -1 0
-10 13 -8 13 -10 -2 -10 -9 0 -19 6 -21 13 -3 7 -6 4 -6 -6 -1 -10 -5 -16 -10
-12 -10 6 -51 -32 -51 -47 0 -5 -4 -6 -10 -3 -5 3 -10 -2 -11 -12 0 -14 -2
-15 -7 -3 -4 8 -14 16 -22 18 -8 1 -25 7 -37 12 -13 6 -33 14 -45 20 -49 20
-135 38 -173 36 -56 -4 -55 -4 -55 -27 0 -23 25 -35 173 -84 l98 -32 26 21
c26 20 27 20 19 1 -5 -11 -11 -28 -13 -37 -3 -10 -10 -18 -16 -18 -6 0 -7 -3
-4 -7 9 -8 -91 -115 -117 -126 -17 -7 -17 -5 -5 10 8 10 21 26 29 36 8 11 20
24 26 31 22 21 -7 54 -81 90 -39 20 -78 36 -86 36 -8 0 -69 22 -135 49 -129
51 -154 52 -154 6 0 -14 -5 -25 -11 -25 -6 0 -3 -7 5 -16 24 -24 39 -54 26
-54 -5 0 -10 5 -10 10 0 6 -5 10 -12 10 -30 0 -80 55 -114 127 -40 85 -58 108
-76 97 -7 -4 -10 -4 -6 1 11 12 -97 155 -118 155 -17 1 -56 39 -49 49 6 11
-12 16 -90 26 -27 3 -63 10 -80 15 -16 5 -73 21 -125 35 -52 14 -99 30 -104
35 -5 5 15 3 45 -5 63 -17 74 -11 91 51 20 77 17 87 -27 101 -22 8 -50 18 -62
25 -17 8 -29 8 -52 -1 -19 -9 -35 -10 -48 -3 -14 8 -85 22 -126 26 -21 2 -24
31 -6 54 25 32 61 154 64 217 3 61 8 86 42 195 28 92 125 297 169 357 30 41
203 213 254 252 67 51 120 107 255 266 69 81 125 140 125 131 0 -5 15 5 33 20
64 55 119 99 146 114 72 42 91 57 122 102 19 26 49 64 67 84 18 20 45 52 60
72 15 20 42 52 60 72 50 52 153 229 134 230 -4 0 1 5 11 11 9 5 17 15 17 22 0
7 -4 6 -10 -3 -8 -13 -10 -12 -10 4 0 14 5 17 21 13 15 -4 25 2 39 26 10 18
24 37 29 44 6 7 11 16 11 21 0 5 44 53 99 108 85 85 107 102 157 118 33 11 64
23 69 26 6 4 21 10 35 13 49 10 145 37 165 46 50 23 191 43 255 37 235 -25
516 -96 738 -186 17 -7 22 -6 22 5 0 7 -4 17 -10 20 -8 5 -55 97 -121 240 -10
22 -34 83 -53 135 -19 52 -55 145 -81 205 -26 61 -60 147 -76 192 -27 78 -96
242 -144 348 -21 44 -41 109 -75 235 -6 23 -6 38 1 45 7 7 9 6 7 -1 -2 -7 8
-22 22 -33 28 -26 73 -25 78 1 2 10 -24 82 -58 160 l-62 143 7 87 c4 57 2 107
-6 142 -9 44 -9 84 0 192 7 75 9 140 4 144 -4 4 -38 15 -74 23 l-67 14 0 -161
0 -161 40 -85 c31 -66 38 -90 31 -109 -8 -25 -58 -47 -69 -30 -3 5 -14 9 -24
9 -10 0 -21 6 -23 13 -4 10 -6 10 -6 0 -1 -7 -6 -13 -12 -13 -5 0 -8 4 -5 9 3
5 0 14 -8 20 -13 11 -29 82 -41 181 -3 25 -8 69 -11 98 -6 45 -4 55 12 66 10
8 22 12 26 9 18 -10 41 30 40 69 -2 32 -9 46 -39 74 -44 39 -66 46 -227 74
-160 27 -171 27 -172 -7z m411 -852 c-3 -5 1 -16 9 -24 8 -8 12 -17 9 -21 -4
-3 0 -6 7 -6 7 0 10 -3 7 -6 -3 -4 -2 -15 3 -25 6 -10 11 -29 12 -43 1 -15 8
-26 15 -26 7 0 13 -7 13 -15 0 -8 -5 -15 -10 -15 -7 0 -7 -6 -1 -18 6 -12 6
-36 -2 -73 l-12 -54 -17 24 c-10 13 -15 28 -12 33 3 4 0 8 -5 8 -6 0 -11 9
-11 20 0 10 -4 29 -10 42 -15 36 -28 188 -16 188 6 0 4 5 -4 10 -12 8 -10 10
8 10 13 0 21 -4 17 -9z m1500 -478 c-9 -154 -22 -393 -35 -653 -14 -303 -32
-540 -42 -570 -7 -23 -5 127 7 440 4 112 18 327 30 465 2 28 7 106 11 175 4
69 8 141 10 160 1 19 3 47 3 63 1 15 6 27 12 27 8 0 9 -31 4 -107z m-1455 -43
c-8 -5 -10 -10 -4 -10 18 0 34 -91 33 -186 -1 -51 2 -97 6 -103 4 -7 9 -25 11
-42 10 -70 12 -85 19 -101 4 -10 12 -18 17 -18 7 0 9 -21 5 -59 -6 -57 -5 -61
21 -78 15 -10 44 -26 65 -36 l38 -17 9 26 c6 14 10 33 10 44 0 26 32 123 46
137 20 21 54 -26 54 -77 0 -18 4 -29 10 -25 6 3 10 -3 10 -14 0 -11 9 -22 20
-26 25 -8 30 -75 5 -75 -8 0 -15 5 -15 10 0 6 -7 10 -16 10 -14 0 -14 -2 0
-15 8 -8 22 -15 31 -15 9 0 13 -5 10 -10 -3 -6 1 -13 9 -16 9 -3 13 -10 10
-15 -3 -5 0 -9 6 -9 11 0 40 -24 40 -34 0 -8 -48 3 -103 25 -28 12 -115 41
-191 65 -77 25 -154 53 -170 63 -50 29 -265 55 -399 48 -62 -4 -138 -11 -170
-17 -32 -6 -73 -8 -90 -4 -30 7 -28 8 38 25 121 32 270 42 427 30 113 -9 145
-15 165 -31 47 -37 49 -6 4 95 -22 50 -28 110 -11 120 6 3 10 15 10 26 0 10 4
19 8 19 5 0 9 6 10 13 2 29 4 143 2 152 -1 6 -2 38 -1 73 1 52 4 62 19 62 14
0 15 -2 2 -10z m-1932 -233 c15 -8 50 -20 77 -27 57 -15 429 -192 439 -209 4
-6 6 -11 4 -11 -20 0 -267 101 -303 124 -11 7 -63 32 -115 56 -106 49 -162 80
-142 80 7 0 25 -6 40 -13z m444 -363 c67 -11 31 -22 -99 -29 -148 -9 -160 -10
-178 -25 -8 -7 -79 -14 -171 -17 -131 -5 -156 -4 -152 8 3 10 42 17 144 26 76
6 150 15 164 18 68 18 232 29 292 19z m558 -14 c0 -7 7 -7 21 0 34 19 99 1
149 -39 68 -55 74 -61 58 -62 -7 -1 -17 0 -23 1 -5 2 -18 2 -27 2 -10 0 -18 5
-19 11 0 7 -5 1 -11 -13 -6 -15 -12 -20 -15 -12 -6 16 -33 16 -33 -1 0 -7 -16
-21 -36 -30 -19 -10 -40 -22 -47 -27 -7 -6 -52 -33 -101 -61 -49 -28 -106 -68
-127 -90 -21 -21 -41 -39 -46 -39 -4 0 -21 -11 -37 -25 -17 -14 -41 -28 -55
-32 -40 -9 -52 -24 -51 -57 4 -63 -1 -65 -61 -28 -82 50 -231 103 -332 117
-40 5 -46 9 -36 21 6 8 20 14 30 14 10 0 43 20 74 46 31 25 89 67 130 93 40
26 93 64 116 83 38 30 56 37 129 48 62 8 94 18 117 36 25 19 44 24 80 23 69
-2 116 6 121 19 5 15 32 16 32 2z m-2840 -370 c0 -25 -535 -68 -650 -52 l-65
9 77 2 c42 0 99 5 125 11 26 5 104 11 173 14 69 2 143 9 165 14 46 11 175 12
175 2z m1599 -59 c69 -17 156 -35 194 -42 67 -11 68 -11 88 15 27 34 40 33 33
-4 -4 -19 -2 -30 4 -30 6 0 9 -7 6 -15 -8 -20 -30 -19 -144 5 -163 34 -330 82
-330 95 0 9 19 6 149 -24z m-2429 -11 c0 -23 -79 -32 -340 -36 -223 -4 -271
-3 -255 7 14 9 97 15 270 20 138 3 264 11 280 16 31 10 45 8 45 -7z m1700 -20
c36 -5 99 -19 140 -30 152 -41 462 -110 562 -126 143 -22 148 -23 148 -35 0
-8 -11 -9 -32 -5 -18 4 -64 9 -103 12 -82 7 -474 86 -590 119 -176 51 -235 65
-267 66 -31 1 -31 2 -8 9 25 8 35 7 150 -10z m-824 -114 c-43 -38 -166 -106
-192 -106 -16 0 -40 -15 -166 -103 -37 -26 -71 -47 -77 -47 -5 0 -11 -3 -13
-7 -4 -10 -98 -80 -169 -126 -46 -30 -258 -227 -444 -412 -96 -96 -210 -223
-245 -274 -21 -31 -46 -65 -57 -76 -10 -11 -45 -55 -78 -98 -33 -44 -76 -100
-96 -125 -124 -163 -394 -602 -462 -753 -56 -124 -65 -147 -82 -214 -9 -38
-23 -83 -30 -100 -7 -16 -20 -49 -30 -72 -18 -43 -35 -49 -35 -12 0 11 15 57
34 102 18 45 39 107 46 137 7 30 16 60 20 65 4 6 17 37 31 70 25 64 148 294
206 385 19 30 70 110 113 178 43 68 100 151 126 185 46 59 175 231 261 347 22
30 104 118 182 196 77 78 141 149 141 158 0 25 -24 29 -66 10 -22 -9 -42 -16
-46 -16 -5 1 -8 -3 -8 -8 0 -6 -4 -10 -10 -10 -5 0 -10 7 -10 15 0 14 12 19
33 16 4 0 7 4 7 9 0 6 7 10 16 10 8 0 12 5 9 10 -3 6 -1 10 4 10 6 0 11 10 11
21 0 16 5 20 20 16 15 -4 36 13 91 76 153 176 239 259 239 229 0 -5 7 -9 15
-9 8 0 15 4 15 8 0 4 8 10 18 13 10 4 32 19 48 34 45 45 84 67 85 51 1 -8 5
-3 9 11 l8 25 2 -25 c1 -14 4 -19 7 -12 2 6 9 10 13 7 5 -3 17 3 27 13 17 18
141 72 164 72 6 0 25 12 44 26 25 18 42 24 64 21 19 -3 35 0 42 9 6 8 22 14
35 14 12 0 26 5 29 10 7 11 78 60 105 72 34 15 33 6 -4 -26z m851 -73 c389
-130 530 -164 723 -179 52 -3 103 -11 113 -16 10 -5 17 -5 17 1 0 13 106 -22
140 -47 63 -47 27 -45 -100 4 -25 10 -72 20 -105 24 -139 15 -311 45 -317 55
-5 6 -8 5 -8 -4 0 -9 -4 -10 -12 -4 -7 6 -33 13 -58 16 -65 9 -274 68 -421
120 -69 24 -166 55 -215 67 -102 27 -104 28 -84 41 25 17 97 0 327 -78z m-312
-112 c50 -15 126 -43 170 -61 192 -77 464 -156 605 -175 124 -17 272 -56 278
-73 5 -17 -34 -15 -94 3 -27 9 -85 20 -129 26 -44 5 -96 14 -115 19 -19 5 -78
19 -130 31 -101 23 -223 61 -410 129 -140 51 -259 90 -272 90 -6 0 -24 6 -41
14 -18 8 -39 17 -47 19 -8 3 10 6 40 6 34 1 89 -10 145 -28z m-323 -112 c44
-10 306 -113 413 -164 41 -19 482 -145 509 -145 26 0 116 -32 116 -41 0 -11
-120 1 -170 17 -25 8 -128 37 -230 64 -102 28 -207 60 -235 71 -321 135 -425
176 -475 184 -40 7 -42 9 -20 16 36 10 34 10 92 -2z m-1174 -11 c18 -18 14
-38 -7 -38 -10 0 -29 -16 -42 -35 -13 -19 -27 -35 -31 -35 -5 0 -8 -5 -8 -11
0 -6 -14 -31 -32 -56 -17 -26 -34 -60 -38 -77 -7 -37 -24 -39 -66 -8 -17 13
-64 38 -105 56 -88 38 -169 88 -152 93 15 5 192 -60 236 -87 17 -11 37 -20 44
-20 6 0 36 37 66 83 30 46 62 90 70 99 9 9 14 18 11 21 -10 10 6 27 25 27 9 0
22 -5 29 -12z m1018 -144 c22 -9 127 -58 234 -110 220 -105 550 -222 657 -231
51 -5 62 -9 67 -26 3 -12 4 -22 3 -23 -7 -6 -144 21 -217 42 -242 72 -272 83
-550 214 -80 38 -156 71 -170 75 -35 10 -90 48 -90 63 0 16 20 15 66 -4z
m-227 -54 c-19 -39 -144 -204 -232 -305 -24 -27 -56 -68 -71 -90 -46 -69 -76
-109 -105 -140 -27 -28 -94 -121 -134 -186 -16 -25 -17 -29 -4 -29 9 0 62 -18
118 -40 57 -22 110 -40 120 -40 9 0 23 -7 30 -16 17 -21 87 -51 222 -98 143
-50 164 -59 254 -112 120 -71 136 -76 161 -52 l20 20 -12 -36 c-13 -44 -42
-56 -62 -28 -8 11 -47 33 -86 48 -40 15 -78 31 -84 36 -6 4 -45 17 -86 28 -95
25 -223 78 -281 118 -24 16 -62 35 -83 42 -22 6 -87 34 -147 62 -85 40 -110
48 -121 38 -8 -6 -42 -66 -76 -133 -34 -67 -68 -129 -74 -137 -24 -28 -96
-177 -96 -197 0 -11 37 -43 50 -43 5 0 24 -6 42 -14 18 -8 64 -26 103 -40 l69
-26 28 27 c28 27 28 27 26 4 -3 -21 10 -28 152 -81 285 -106 426 -168 456
-201 18 -20 17 -20 -14 -14 -52 9 -178 53 -287 100 -55 24 -131 54 -170 66
-38 13 -76 29 -83 36 -7 7 -34 13 -59 13 -25 0 -57 6 -71 14 -15 8 -65 28
-112 46 -47 18 -99 41 -116 51 -17 10 -38 19 -45 19 -21 0 -38 -34 -49 -93 -6
-29 -23 -75 -37 -104 -27 -51 -27 -62 -1 -67 7 -2 36 -13 63 -25 28 -13 77
-33 110 -46 33 -12 80 -31 103 -41 35 -14 48 -15 63 -6 10 7 19 8 19 4 0 -4
17 -15 38 -24 20 -8 87 -36 147 -61 61 -25 121 -48 135 -52 33 -10 162 -73
174 -85 18 -18 41 -10 58 18 20 33 86 98 93 90 3 -2 -10 -24 -27 -47 -18 -24
-44 -58 -58 -76 -14 -18 -46 -60 -72 -94 -26 -33 -61 -87 -77 -118 -41 -80
-58 -103 -127 -175 -75 -80 -134 -157 -134 -176 0 -8 8 -21 18 -29 16 -14 16
-14 0 -9 -10 3 -22 -2 -28 -12 -11 -16 -11 -16 -6 1 7 21 -7 22 -24 2 -18 -21
-50 -19 -50 4 0 20 -44 52 -130 96 -30 15 -60 36 -67 45 -7 10 -30 20 -52 24
-22 3 -41 13 -45 22 -4 9 -5 18 -4 19 16 15 88 -6 88 -26 0 -6 6 -9 14 -6 18
7 129 -48 165 -82 51 -47 69 -41 155 50 44 47 75 88 72 95 -3 8 0 14 7 14 7 0
18 10 26 21 19 31 -5 50 -114 89 -49 18 -111 43 -137 56 -26 13 -57 24 -68 24
-11 0 -30 8 -41 19 -11 10 -46 26 -77 35 -105 31 -240 87 -257 106 -17 19 -17
20 1 20 29 0 258 -77 315 -106 28 -14 57 -23 64 -20 7 2 16 -2 19 -9 3 -8 24
-24 48 -37 40 -21 235 -104 268 -114 18 -5 180 214 180 244 0 11 -8 22 -17 25
-91 27 -193 72 -387 168 -71 36 -81 38 -96 24 -22 -20 -32 -19 -72 4 -18 11
-71 35 -118 54 -47 19 -107 48 -134 65 -47 30 -51 31 -68 15 -34 -31 -74 -136
-83 -218 -3 -22 -19 -74 -36 -115 -17 -41 -40 -97 -51 -125 -11 -27 -31 -72
-43 -100 -12 -27 -25 -70 -29 -95 -6 -41 -35 -136 -57 -185 -5 -11 -16 -42
-24 -68 -27 -82 -83 -194 -115 -230 -16 -19 -30 -39 -30 -44 0 -5 -7 -10 -15
-10 -8 0 -15 1 -15 3 0 1 19 33 43 72 24 38 49 89 56 113 7 24 17 53 22 64 4
11 20 56 34 100 14 44 30 89 35 100 16 35 60 173 60 190 0 9 14 42 30 72 37
66 74 178 65 193 -4 6 0 21 8 33 7 12 24 54 36 92 12 39 38 95 56 126 41 67
89 169 122 259 37 99 39 111 17 127 -18 13 -17 14 7 8 22 -6 30 0 62 49 20 31
37 59 37 64 0 4 12 25 26 45 14 21 23 41 20 44 -3 3 6 19 20 36 14 17 45 69
69 117 24 48 55 100 68 116 13 16 46 63 72 104 27 41 71 100 99 131 28 30 64
75 81 100 29 43 179 239 222 289 12 14 47 55 78 93 32 37 59 67 60 67 2 0 -6
-18 -16 -40z m-1569 1 c0 -5 -6 -16 -13 -23 -7 -7 -28 -38 -45 -68 -38 -64
-33 -55 -111 -184 -34 -54 -61 -102 -61 -107 0 -5 -4 -9 -9 -9 -8 0 -29 -29
-67 -92 -6 -10 -18 -26 -27 -36 -10 -10 -17 -27 -17 -38 0 -17 2 -16 24 6 13
14 24 27 24 30 0 23 5 30 22 30 11 0 20 6 20 13 0 9 2 9 8 1 5 -9 11 -8 20 2
10 11 10 14 0 15 -9 0 -8 3 2 6 21 9 139 131 178 184 17 25 32 58 32 72 0 21
5 27 23 27 13 0 28 -5 34 -11 7 -7 31 -13 55 -15 38 -2 47 2 76 32 17 19 32
39 32 44 0 4 6 11 13 14 10 5 10 7 0 12 -7 3 -13 14 -13 25 0 25 27 25 83 0
23 -10 57 -24 75 -31 17 -7 32 -17 32 -22 0 -5 17 -8 38 -7 57 3 62 1 61 -23
0 -22 -1 -22 -9 -3 -8 19 -9 19 -9 -2 -1 -13 4 -23 9 -23 6 0 9 -12 9 -27 -1
-21 -3 -23 -6 -9 -3 11 -11 25 -18 33 -11 11 -16 8 -26 -16 -7 -16 -17 -27
-21 -25 -7 5 -12 -21 -5 -29 1 -2 -4 -11 -12 -20 -7 -10 -10 -17 -7 -17 4 0 2
-9 -4 -20 -6 -11 -17 -20 -25 -20 -8 0 -15 -4 -15 -10 0 -5 -5 -10 -10 -10 -6
0 -16 -5 -23 -10 -7 -6 -37 -29 -67 -52 -30 -24 -57 -45 -60 -48 -3 -3 -36
-31 -75 -62 -95 -77 -165 -144 -165 -157 0 -6 -3 -10 -7 -10 -22 4 -38 -7
-110 -78 -133 -131 -323 -369 -323 -405 0 -11 -172 -265 -204 -301 -13 -16
-27 -28 -30 -27 -14 3 -26 -8 -75 -74 -29 -39 -58 -71 -66 -72 -19 -3 -29 28
-13 41 18 14 88 110 88 121 0 5 -20 22 -45 38 l-45 28 39 42 c44 45 88 107
102 143 8 22 6 26 -35 61 -22 18 -11 41 109 219 58 86 105 164 105 175 0 11 7
18 18 18 11 0 25 14 35 33 9 17 21 39 27 47 22 35 150 253 150 257 0 8 98 151
122 179 48 54 133 161 165 208 32 45 43 55 43 37z m-917 -117 c3 -4 -3 -18
-13 -32 -11 -13 -20 -28 -20 -33 0 -18 -145 -237 -175 -264 -18 -16 -72 -79
-120 -140 -48 -60 -92 -114 -99 -120 -6 -5 -36 -39 -65 -75 -74 -91 -73 -90
-119 -153 -23 -31 -51 -61 -62 -67 -33 -18 -24 8 25 69 56 70 54 67 90 121 28
42 70 89 222 250 116 122 113 118 103 145 -8 21 -7 25 8 25 20 0 59 49 148
187 59 92 65 99 77 87z m6987 -6 c0 -5 5 -8 11 -8 20 0 125 -79 201 -152 42
-40 88 -84 103 -97 68 -63 165 -214 165 -258 0 -13 5 -23 10 -23 6 0 5 -6 -2
-14 -8 -9 -14 -10 -17 -4 -4 11 -22 34 -58 74 -13 14 -23 29 -23 35 0 5 -28
36 -62 69 -69 67 -208 145 -334 186 -42 13 -94 33 -117 44 -22 11 -46 20 -51
20 -19 1 -63 39 -46 40 8 0 47 23 85 49 52 36 78 49 102 47 18 0 33 -4 33 -8z
m-4185 -118 c297 -145 491 -213 690 -240 109 -15 155 -32 189 -71 33 -37 21
-38 -88 -4 -45 13 -124 35 -176 49 -52 13 -122 33 -155 44 -33 11 -109 36
-170 55 -60 19 -155 57 -210 85 -55 27 -147 73 -205 102 -102 51 -140 75 -140
91 0 15 51 -6 265 -111z m-2336 18 c-7 -13 -19 -33 -28 -44 -9 -12 -23 -32
-31 -44 -8 -13 -26 -37 -41 -54 -14 -17 -42 -65 -64 -106 -21 -41 -80 -140
-130 -220 -51 -80 -103 -165 -117 -190 -56 -100 -156 -239 -217 -302 -37 -36
-80 -86 -97 -110 -17 -23 -65 -87 -105 -142 -41 -54 -78 -106 -84 -115 -5 -8
-17 -23 -25 -31 -16 -17 -22 -25 -70 -118 -18 -35 -34 -61 -37 -59 -6 6 50
144 67 166 8 9 20 24 25 33 28 42 54 80 105 148 31 41 78 107 105 145 46 68
91 118 112 126 22 9 128 163 230 337 12 20 26 42 32 49 6 7 11 14 11 17 0 8
80 135 160 255 44 66 80 127 80 135 0 8 6 19 13 23 7 4 34 34 61 66 52 61 64
70 45 35z m8646 -134 c19 -30 35 -57 35 -60 0 -2 16 -28 35 -57 19 -28 35 -55
35 -60 0 -4 16 -33 35 -63 19 -30 35 -61 35 -68 0 -8 4 -16 8 -18 5 -1 22 -28
39 -58 55 -100 75 -134 104 -177 16 -23 29 -45 29 -49 0 -3 15 -27 33 -53 31
-43 38 -71 17 -71 -18 0 -137 195 -260 425 -14 28 -34 61 -42 75 -30 47 -68
115 -84 150 -9 19 -20 42 -25 50 -24 42 -49 90 -49 95 0 15 23 -11 55 -61z
m-6595 -43 c69 -32 141 -64 160 -71 19 -8 49 -24 67 -36 17 -12 87 -40 155
-63 68 -23 156 -58 196 -77 41 -20 80 -33 87 -30 8 3 28 -2 45 -10 17 -9 37
-13 45 -11 7 3 16 -1 19 -9 3 -8 11 -14 17 -14 8 0 7 5 -2 16 -12 15 -11 16 8
10 19 -6 26 0 44 36 16 29 24 38 27 26 3 -16 -31 -79 -60 -109 -7 -8 -19 -25
-26 -39 -7 -14 -23 -32 -35 -39 -19 -12 -19 -10 4 15 27 29 44 74 29 74 -5 0
-10 -6 -13 -12 -3 -10 -16 -7 -51 10 -25 12 -53 22 -60 22 -7 0 -19 6 -25 14
-6 8 -22 16 -34 19 -12 3 -45 14 -73 25 -28 10 -67 22 -85 26 -36 6 -240 89
-361 145 -37 17 -73 31 -80 31 -15 0 -104 47 -134 70 -10 8 -26 24 -34 34 -14
18 -13 19 15 12 16 -4 86 -33 155 -65z m-2545 -57 c-41 -63 -58 -85 -106 -144
-123 -149 -279 -387 -279 -426 0 -8 -6 -14 -13 -14 -12 0 -78 -85 -149 -192
-21 -31 -43 -60 -48 -63 -6 -4 -15 -17 -21 -28 -16 -38 -100 -158 -140 -202
-10 -11 -28 -30 -39 -43 -39 -43 -33 -13 8 40 22 29 58 81 79 114 48 77 167
249 202 290 38 46 54 67 71 96 26 46 94 143 102 146 5 2 8 9 8 16 0 7 8 21 18
32 9 10 19 28 21 39 4 27 105 166 174 240 15 16 51 61 80 98 54 70 79 70 32 1z
m7064 -15 c90 -23 165 -56 209 -93 45 -39 40 -49 -12 -20 -77 43 -195 78 -353
104 -40 6 -73 16 -73 20 0 24 112 18 229 -11z m1470 -88 c11 -7 12 -23 5 -83
-16 -139 -12 -163 47 -283 54 -110 94 -169 110 -159 5 3 9 25 9 49 0 49 19 64
44 36 20 -23 21 -116 2 -214 -8 -40 -18 -100 -21 -135 -12 -111 -27 -100 -125
93 -39 77 -79 147 -90 155 -10 8 -22 33 -25 55 -11 62 -32 120 -72 198 -34 65
-38 80 -37 147 0 41 3 87 7 103 7 24 10 26 28 17 11 -6 23 -19 26 -28 9 -26
35 -52 44 -46 5 3 9 20 9 39 0 36 8 65 19 65 3 0 12 -4 20 -9z m-5847 -195
c68 -24 168 -65 223 -90 55 -25 107 -46 116 -46 8 0 24 -7 35 -15 28 -21 31
-19 39 28 4 23 10 35 12 26 2 -10 19 -19 42 -23 21 -3 49 -15 62 -25 l24 -19
-45 8 c-25 5 -52 11 -61 15 -15 5 -26 -6 -34 -37 -2 -5 -3 -10 -4 -12 -2 -8
-163 46 -236 79 -40 18 -113 48 -162 66 -80 29 -163 72 -163 84 0 12 37 2 152
-39z m4146 -16 c24 0 141 -57 182 -88 54 -42 100 -72 109 -72 12 0 111 -107
111 -120 0 -6 9 -20 20 -32 11 -12 20 -27 20 -32 0 -10 -36 27 -79 79 -15 19
-50 43 -298 201 -50 33 -92 66 -92 74 1 10 2 11 6 3 2 -7 12 -13 21 -13z
m-4808 -319 c47 -16 123 -41 170 -56 80 -25 175 -62 347 -134 40 -16 98 -35
130 -41 32 -6 65 -13 73 -15 8 -1 14 -8 13 -14 -2 -6 2 -11 9 -11 8 0 6 -6 -4
-16 -15 -15 -24 -15 -79 -5 -34 7 -72 19 -83 26 -26 17 -410 171 -451 181 -42
10 -215 93 -234 112 -19 18 -24 20 109 -27z m-544 -36 c-1 -13 -15 -34 -30
-46 -41 -32 -175 -258 -176 -295 0 -7 -20 -61 -44 -120 -24 -60 -49 -129 -56
-153 -10 -40 -10 -46 6 -58 16 -11 15 -13 -10 -23 -15 -5 -32 -8 -37 -4 -12 7
-12 57 1 70 6 6 23 46 39 90 33 90 73 189 103 254 12 25 33 73 47 107 27 64
117 183 139 183 6 0 12 5 12 10 0 6 2 10 4 10 3 0 3 -11 2 -25z m-1565 -187
c-11 -18 -26 -44 -33 -58 -7 -14 -21 -31 -30 -38 -10 -7 -18 -18 -18 -24 0 -6
-22 -46 -50 -89 -27 -43 -50 -80 -50 -82 0 -9 -84 -141 -121 -192 -20 -28 -47
-69 -59 -92 -23 -45 -36 -57 -25 -24 22 69 376 631 398 631 5 0 0 -15 -12 -32z
m64 -200 c-9 -43 -77 -169 -126 -235 -22 -29 -39 -55 -39 -59 0 -4 -11 -19
-25 -33 -13 -14 -48 -53 -77 -87 -125 -143 -172 -194 -180 -194 -12 0 3 24 72
110 146 182 310 413 310 436 0 7 62 94 67 94 3 0 1 -15 -2 -32z m3515 6 c0 -8
4 -13 8 -10 4 2 14 1 22 -5 13 -7 13 -9 0 -9 -13 0 -13 -1 0 -10 11 -7 11 -10
2 -10 -7 0 -11 -4 -8 -9 7 -11 -25 -101 -36 -101 -4 0 -8 -6 -8 -14 0 -22 -23
-36 -37 -21 -6 7 -9 16 -6 19 4 3 1 6 -6 6 -7 0 -9 5 -6 10 6 9 -8 14 -27 11
-5 0 -8 16 -7 37 0 20 3 31 6 24 4 -9 10 -7 22 7 10 12 21 18 25 14 3 -3 6 -1
6 5 0 5 -6 13 -12 15 -8 3 -6 6 5 6 10 1 17 9 17 19 0 10 3 22 7 25 12 13 33
7 33 -9z m6448 -531 c-9 -10 -23 -33 -33 -52 -9 -19 -21 -39 -26 -45 -21 -25
-55 -84 -73 -123 -11 -24 -22 -43 -25 -43 -3 0 -17 -17 -30 -38 -26 -38 -35
-50 -96 -115 -31 -34 -35 -36 -35 -17 0 12 39 73 88 136 48 63 104 140 124
172 61 94 98 142 110 142 7 0 5 -7 -4 -17z m-10124 -25 c-16 -33 -118 -174
-139 -193 -27 -25 -84 -105 -109 -155 -50 -95 -169 -277 -209 -320 -8 -8 -20
-25 -26 -37 -6 -13 -16 -23 -22 -23 -12 0 9 37 94 175 31 50 77 131 103 180
50 98 73 129 179 250 38 44 84 97 100 117 37 46 51 49 29 6z m4373 -3 c5 -8
23 -25 40 -38 96 -70 157 -126 174 -158 10 -20 15 -39 12 -43 -4 -3 2 -6 12
-6 10 0 16 -3 12 -6 -7 -8 15 -33 25 -28 3 2 18 -9 31 -26 30 -35 33 -36 55
-13 16 15 17 15 20 0 2 -9 -6 -30 -17 -46 -12 -16 -21 -32 -21 -35 0 -3 -10
-16 -22 -29 -51 -55 -68 -75 -68 -82 0 -4 -14 -24 -30 -44 -17 -20 -34 -40
-38 -45 -4 -6 -7 -21 -6 -35 1 -17 0 -19 -3 -6 -3 11 -9 24 -13 29 -11 11 12
59 57 113 19 24 32 47 29 52 -7 11 -100 66 -188 111 -42 22 -68 41 -68 51 0 9
-7 19 -15 23 -8 3 -15 1 -15 -4 0 -6 5 -10 10 -10 6 0 10 -4 10 -9 0 -9 -76 2
-87 13 -4 3 4 6 17 6 26 0 22 10 -7 15 -10 1 -17 8 -15 14 1 6 -2 11 -8 11 -5
0 -10 9 -10 20 0 11 -4 20 -9 20 -15 0 -22 30 -11 48 6 11 9 12 10 4 0 -7 4
-11 8 -8 5 3 17 -6 27 -20 10 -14 27 -35 37 -46 10 -11 15 -25 12 -29 -3 -5 2
-9 10 -9 19 0 174 -75 195 -94 9 -8 44 -27 78 -44 49 -23 63 -27 67 -16 4 10
-2 14 -18 14 -21 0 -23 5 -25 52 -1 66 -19 83 -168 168 -62 35 -125 73 -140
86 -25 20 -26 22 -10 38 9 10 17 26 17 37 0 23 35 26 47 4z m-252 -280 c22 -4
48 -8 57 -9 27 -3 157 -90 158 -105 0 -9 -7 -11 -20 -8 -11 3 -27 -1 -35 -10
-12 -11 -15 -12 -16 -1 0 10 -2 10 -6 1 -3 -10 -8 -10 -19 1 -8 8 -14 20 -14
26 0 6 -4 8 -10 5 -5 -3 -10 -1 -10 4 0 6 -7 11 -16 11 -8 0 -12 5 -9 10 3 6
0 10 -8 10 -7 0 -22 8 -33 18 -11 9 -24 18 -29 19 -6 1 -26 8 -46 15 -26 10
-33 16 -25 24 6 7 18 8 26 4 8 -4 33 -11 55 -15z m1728 -53 c4 0 20 -4 35 -10
59 -21 99 -31 150 -37 28 -4 52 -10 52 -13 0 -7 63 -33 120 -50 l35 -10 -30
-1 c-16 0 -50 8 -74 19 -46 21 -71 25 -71 12 0 -5 -14 -22 -30 -39 -17 -17
-41 -46 -54 -65 -93 -136 -109 -158 -114 -154 -3 3 1 14 9 23 8 10 25 39 37
65 13 25 46 74 73 107 34 42 44 61 33 61 -9 0 -33 9 -53 19 -20 11 -64 32 -98
47 -35 15 -63 31 -63 36 0 5 7 5 18 -1 9 -5 21 -9 25 -9z m-2653 -29 c16 -17
15 -20 -10 -43 -15 -14 -45 -34 -66 -45 -21 -11 -41 -23 -44 -26 -3 -4 -30
-21 -60 -39 -64 -39 -100 -40 -146 -5 -29 22 -77 94 -53 80 5 -4 9 2 9 12 0
15 2 16 10 3 5 -8 10 -10 10 -4 0 7 14 11 35 8 20 -1 33 1 30 5 -2 5 8 11 23
14 15 2 59 16 97 30 83 31 141 34 165 10z m1744 -36 c41 -39 56 -60 56 -80 0
-15 -4 -27 -10 -27 -5 0 -10 -9 -10 -19 0 -23 144 -171 165 -171 19 0 19 -14
2 -29 -16 -12 -37 4 -37 28 0 8 -3 12 -6 8 -3 -3 -17 5 -31 19 -13 13 -28 24
-34 24 -5 0 -28 17 -52 39 -43 40 -163 121 -179 121 -12 0 -78 44 -78 51 0 4
10 7 23 8 12 0 29 1 37 2 8 1 22 -2 31 -5 12 -5 18 0 23 20 6 22 9 25 17 13 7
-11 9 -10 10 6 1 17 2 17 6 2 2 -9 8 -15 13 -12 5 3 16 -2 24 -11 9 -8 16 -11
16 -5 0 5 -8 15 -17 20 -10 6 -14 11 -9 11 5 0 -1 9 -14 20 -13 11 -18 20 -12
20 5 0 35 -24 66 -53z m-4954 -49 c-1 -14 -13 -35 -99 -175 -30 -48 -59 -91
-64 -94 -5 -3 -16 -18 -25 -32 -41 -62 -107 -153 -128 -176 -13 -14 -24 -29
-24 -32 0 -4 -7 -9 -15 -13 -21 -8 -19 16 4 41 11 12 70 97 131 189 62 93 125
188 141 212 16 23 29 45 29 49 0 10 32 43 42 43 4 0 8 -6 8 -12z m10270 4 c0
-5 -8 -17 -19 -28 -10 -11 -24 -31 -31 -45 -7 -13 -27 -42 -44 -63 -17 -22
-47 -70 -66 -107 -65 -124 -123 -224 -131 -227 -5 -2 -9 -8 -9 -14 0 -11 -29
-37 -42 -38 -5 0 -8 6 -8 14 0 8 -22 34 -49 56 -60 51 -65 63 -41 92 l19 23 1
-26 c0 -26 16 -49 35 -49 13 0 131 137 186 215 40 58 176 203 192 204 4 1 7
-3 7 -7z m-5030 -152 c-7 -17 -11 -32 -9 -34 2 -2 37 -20 77 -40 125 -62 142
-75 142 -99 0 -14 106 -67 134 -67 8 0 18 -4 21 -10 3 -5 46 -30 96 -56 49
-26 88 -48 86 -51 -5 -4 -116 35 -132 47 -5 4 -26 13 -46 19 -20 6 -45 20 -56
30 -11 10 -52 36 -92 57 -40 22 -107 58 -149 81 -42 23 -87 46 -99 52 -30 14
-29 25 5 71 31 44 40 44 22 0z m5081 -137 c-11 -22 -27 -45 -35 -52 -23 -19
-20 -26 19 -67 46 -48 44 -52 -7 -15 -23 17 -47 31 -53 31 -20 0 -165 -185
-165 -210 0 -5 -4 -10 -10 -10 -5 0 -10 -6 -10 -13 0 -7 -9 -23 -20 -35 -12
-12 -16 -22 -11 -22 19 0 -2 -56 -82 -225 -32 -66 -62 -128 -67 -137 -14 -25
-12 -58 3 -58 15 0 80 66 122 123 24 33 27 42 17 58 -14 22 -9 24 19 8 24 -12
51 7 76 54 8 16 17 26 20 23 8 -7 -17 -66 -28 -66 -5 0 -8 -3 -7 -7 3 -18 -18
-51 -61 -94 -91 -91 -151 -165 -193 -239 -15 -25 -36 -53 -47 -63 -19 -15 -22
-15 -27 -2 -4 8 -4 21 -1 29 3 8 -5 19 -18 26 -14 7 -22 17 -19 22 3 4 -3 8
-12 8 -10 0 -15 3 -11 6 9 9 -39 54 -58 54 -13 0 -13 2 -3 14 11 11 16 10 30
-7 10 -11 18 -15 18 -9 0 9 6 9 25 0 19 -8 28 -8 40 2 8 7 15 16 15 21 0 4 14
28 30 53 17 24 42 70 55 100 14 31 43 85 65 120 46 72 49 93 17 105 -13 5 -29
17 -37 26 -8 9 -34 26 -59 38 -56 26 -76 43 -60 52 13 9 65 -12 105 -42 17
-13 34 -23 38 -23 9 0 25 18 108 125 35 44 89 107 121 141 31 33 57 64 57 68
0 10 113 136 118 132 2 -2 -6 -22 -17 -43z m-3692 -75 c-13 -18 -26 -35 -29
-38 -3 -3 -13 -17 -22 -31 -9 -14 -51 -66 -93 -115 -137 -160 -225 -246 -225
-221 0 20 34 65 106 140 148 154 226 247 221 261 -4 10 -1 13 8 10 8 -3 22 4
31 15 27 31 29 16 3 -21z m-4681 -74 c-3 -28 -1 -34 14 -34 13 0 18 8 19 33 1
21 3 25 6 12 3 -11 10 -23 17 -27 8 -6 7 -8 -1 -8 -8 0 -13 -14 -13 -35 0 -19
5 -35 10 -35 6 0 10 -11 10 -25 0 -20 -5 -25 -24 -25 -14 0 -28 5 -31 10 -3 6
-16 10 -28 10 -30 0 -125 -174 -106 -196 12 -15 2 -18 -25 -8 -23 9 -20 31 14
81 49 72 70 120 70 158 0 19 5 35 10 35 6 0 10 6 10 13 0 7 9 23 20 35 11 12
20 31 21 44 0 13 3 17 6 10 3 -7 3 -29 1 -48z m6270 1 c112 -54 260 -102 420
-135 81 -17 172 -40 202 -51 213 -77 300 -133 369 -234 15 -22 43 -63 63 -91
38 -54 128 -224 128 -241 0 -6 9 -31 20 -57 26 -57 33 -106 16 -106 -16 0 -36
21 -36 37 0 7 -11 37 -25 67 -14 30 -25 58 -25 61 0 12 -34 79 -58 115 -39 59
-170 197 -215 227 -23 16 -60 37 -82 47 -22 10 -62 29 -89 42 -28 13 -54 24
-58 24 -5 0 -44 13 -86 29 -70 27 -184 64 -317 104 -168 50 -195 60 -195 68 0
6 -5 7 -11 4 -6 -4 -13 2 -15 12 -3 11 -21 27 -41 36 -20 9 -31 11 -24 4 14
-14 15 -41 1 -32 -5 3 -10 -3 -10 -14 0 -28 3 -37 13 -33 4 1 7 -16 7 -39 0
-24 4 -38 10 -34 6 4 10 -7 10 -24 0 -21 5 -31 15 -31 9 0 21 -5 28 -10 7 -6
28 -22 47 -35 l34 -25 -59 6 c-33 3 -73 10 -90 16 -60 22 -192 89 -213 108
-12 11 -24 20 -28 20 -10 0 -44 32 -44 41 0 4 18 7 41 6 32 -2 44 3 53 18 20
34 36 47 53 41 14 -6 14 -4 2 11 -13 17 -12 17 14 0 33 -21 43 -17 52 25 8 34
24 57 41 58 6 0 43 -16 82 -35z m-3288 -293 c0 -4 -14 -20 -30 -36 -17 -15
-56 -80 -86 -142 -31 -63 -60 -114 -65 -114 -5 0 -9 -7 -9 -15 0 -32 -32 -94
-46 -88 -8 3 -14 0 -14 -6 0 -6 -5 -11 -10 -11 -7 0 -7 7 1 22 10 18 8 24 -12
39 l-24 18 27 10 c18 7 52 48 106 133 118 181 130 198 147 198 8 0 15 -3 15
-8z m-4999 -199 c-17 -21 -39 -49 -50 -63 -34 -42 -91 -114 -99 -125 -13 -18
-136 -157 -160 -182 -23 -23 -52 -31 -52 -14 0 6 5 13 10 16 6 3 53 57 106
118 53 62 114 132 135 157 22 25 43 49 47 53 12 15 85 77 90 77 2 0 -10 -17
-27 -37z m2033 15 c-4 -7 -28 -35 -53 -61 -25 -26 -48 -54 -51 -62 -3 -7 -20
-29 -37 -49 -18 -19 -33 -40 -33 -46 0 -5 -9 -19 -20 -30 -11 -11 -20 -27 -20
-35 0 -8 -4 -15 -8 -15 -5 0 -19 -19 -32 -42 -13 -24 -30 -49 -37 -56 -19 -20
-17 22 5 84 17 48 88 153 105 154 4 0 46 38 92 85 79 80 106 102 89 73z
m-1665 -79 c-17 -30 -53 -85 -78 -124 -63 -93 -111 -174 -111 -186 0 -6 -4 -8
-9 -5 -5 3 -8 -5 -8 -19 0 -14 3 -22 8 -20 18 12 -13 -60 -50 -115 -23 -33
-41 -62 -41 -65 0 -7 -29 -42 -87 -103 -29 -30 -53 -59 -53 -64 0 -10 -27 -11
-33 0 -3 4 6 21 19 37 97 117 155 199 156 221 2 15 7 23 15 20 7 -3 20 8 28
24 15 29 14 30 -5 30 -27 0 -25 13 10 63 17 23 68 100 115 171 85 128 147 208
153 195 2 -4 -11 -31 -29 -60z m7656 -102 c72 -25 160 -70 230 -116 22 -15 51
-32 65 -39 14 -6 33 -17 42 -24 9 -7 21 -8 25 -4 4 5 2 11 -4 13 -15 6 -17 49
-3 58 12 7 157 -67 188 -95 12 -11 28 -20 36 -20 8 0 16 -3 18 -7 2 -5 19 -16
39 -26 20 -11 43 -31 50 -45 14 -28 98 -114 232 -238 42 -40 77 -78 77 -86 0
-7 9 -20 19 -28 11 -7 18 -17 15 -21 -2 -4 2 -13 9 -21 7 -7 32 -41 55 -75 23
-34 60 -82 82 -108 22 -25 40 -49 40 -53 0 -4 4 -13 9 -21 8 -12 12 -12 26 3
22 22 27 17 16 -20 -22 -70 -28 -134 -14 -171 7 -21 13 -42 13 -46 0 -9 -59
43 -143 126 -32 31 -62 57 -68 57 -5 0 -9 4 -9 9 0 5 -13 14 -30 21 -16 7 -39
25 -52 40 -12 15 -28 26 -35 23 -7 -3 -13 2 -13 12 0 9 -4 14 -8 11 -5 -3 -23
4 -40 15 -18 10 -41 19 -52 19 -10 0 -22 5 -25 10 -4 6 -11 8 -16 5 -5 -4 -9
-1 -9 4 0 6 -5 11 -12 11 -6 0 -25 10 -42 23 -17 13 -56 37 -86 53 -30 16 -62
37 -71 46 -9 10 -24 18 -33 18 -9 0 -16 6 -17 13 0 9 -2 9 -6 0 -5 -14 -31 -2
-73 35 -14 12 -45 29 -70 38 -25 9 -53 20 -62 25 -10 5 -25 9 -33 9 -9 0 -13
5 -10 10 5 8 -47 16 -77 11 -5 0 -8 3 -8 9 0 6 -13 10 -30 10 -16 0 -30 5 -30
10 0 6 -13 10 -30 10 -16 0 -30 5 -30 10 0 6 -13 10 -30 10 -17 0 -30 5 -30
13 0 8 -4 7 -10 -3 -9 -13 -10 -13 -10 0 0 13 -1 13 -10 0 -5 -8 -10 -10 -10
-5 0 6 -13 11 -30 11 -47 2 -78 28 -72 59 2 15 8 22 11 16 5 -7 16 -2 31 14
18 19 20 24 7 19 -14 -5 -16 -2 -11 12 4 11 11 24 16 30 11 15 1 22 -102 75
-47 24 -89 47 -95 52 -5 4 -25 17 -42 27 -31 19 -45 50 -23 50 15 0 74 -31 81
-42 10 -15 212 -99 226 -94 7 3 13 0 14 -7 0 -9 2 -9 6 1 2 6 11 12 19 12 9 0
12 5 9 10 -3 6 0 10 8 10 8 0 18 12 21 26 7 26 56 83 56 64 0 -5 7 -10 15 -10
27 0 18 47 -14 69 -45 32 -105 49 -218 63 -7 1 -13 5 -13 10 0 4 -3 7 -7 7
-22 -4 -33 3 -33 19 0 16 6 17 63 11 34 -4 94 -18 132 -32z m1620 15 c6 -31
24 -62 25 -42 0 13 2 13 9 1 11 -17 3 -41 -13 -41 -6 0 -12 -15 -12 -32 -2
-43 -14 -98 -26 -122 -5 -10 -7 -33 -4 -51 4 -21 2 -38 -7 -47 -18 -18 -27
-45 -34 -95 -3 -26 -1 -43 5 -43 6 0 13 27 17 60 5 41 11 60 21 60 15 0 15
-21 -1 -32 -6 -5 -5 -8 3 -8 14 0 12 -61 -3 -72 -6 -5 -4 -8 5 -8 13 0 13 -1
0 -10 -13 -9 -13 -10 0 -10 13 0 13 -1 0 -10 -12 -8 -12 -10 -1 -10 9 0 7 -6
-7 -19 -12 -10 -22 -26 -22 -35 0 -9 -5 -16 -10 -16 -7 0 -7 -6 -1 -18 7 -14
5 -22 -9 -32 -15 -10 -16 -16 -7 -22 8 -5 7 -8 -5 -8 -28 0 -26 100 2 120 11
8 20 26 20 40 0 20 -2 22 -10 10 -9 -13 -10 -13 -11 0 0 8 -5 4 -10 -10 -6
-16 -7 2 -3 54 3 43 16 112 30 152 13 40 24 80 24 88 0 9 6 16 13 16 8 0 7 4
-3 10 -13 9 -13 10 0 10 9 0 11 3 5 8 -12 9 -15 72 -3 72 5 0 7 4 3 9 -3 5 7
12 22 14 20 3 15 5 -17 6 -38 3 -41 4 -20 11 17 5 19 8 8 9 -10 1 -18 8 -18
18 0 15 31 54 38 48 1 -1 4 -12 7 -23z m-4235 -41 c0 -5 -7 -14 -15 -21 -19
-16 -222 -331 -235 -365 -11 -28 -27 -29 -43 -3 -8 12 -1 28 27 67 21 28 59
83 85 123 27 40 69 100 95 132 25 33 46 63 46 68 0 4 9 8 20 8 11 0 20 -4 20
-9z m-4692 -37 c9 -9 26 -37 39 -63 13 -25 36 -66 53 -91 16 -25 36 -58 44
-75 8 -16 35 -55 60 -85 25 -30 60 -75 78 -100 17 -25 47 -65 67 -89 33 -40
40 -56 43 -88 1 -7 5 -13 10 -13 4 0 8 -7 8 -17 0 -18 -22 5 -127 137 -37 47
-80 97 -95 112 -15 14 -28 31 -28 37 0 16 -39 88 -55 101 -8 7 -26 33 -41 58
-15 26 -43 64 -63 85 -36 38 -45 71 -26 94 13 16 14 16 33 -3z m2962 -49 c-5
-14 -17 -37 -26 -52 -48 -77 -88 -141 -103 -163 -26 -37 -79 -133 -129 -235
-44 -88 -71 -127 -135 -193 -35 -36 -67 -57 -67 -45 0 4 23 38 51 75 44 59 49
70 39 89 -10 17 -9 23 1 30 8 5 17 9 22 9 4 0 7 4 7 10 0 19 271 420 323 478
26 28 29 28 17 -3z m-4030 -63 c0 -5 -9 -17 -20 -27 -11 -10 -20 -25 -20 -34
0 -9 -11 -28 -24 -42 -13 -14 -29 -42 -35 -62 -7 -20 -17 -37 -22 -37 -5 0 -9
-8 -9 -17 1 -19 23 -53 35 -53 4 0 18 -9 32 -20 14 -11 21 -20 15 -20 -6 0
-17 6 -24 13 -7 6 -20 13 -28 15 -8 2 -17 7 -20 12 -3 5 -17 11 -32 15 -72 18
-62 55 47 173 80 85 105 105 105 84z m6164 -134 c-14 -25 -73 -94 -137 -162
-37 -38 -79 -87 -94 -110 -15 -23 -32 -46 -38 -52 -48 -53 -70 -82 -73 -93 -4
-21 -52 -63 -68 -59 -16 3 -3 23 67 102 20 23 38 48 41 56 8 21 255 307 276
319 24 14 35 13 26 -1z m1390 -40 c-34 -59 -124 -189 -146 -212 -16 -16 -28
-32 -28 -35 0 -11 15 -26 28 -29 7 -1 53 -25 101 -52 49 -28 96 -50 105 -50 9
0 16 -4 16 -10 0 -5 6 -10 14 -10 8 0 17 -4 21 -10 12 -19 -103 23 -183 68
-46 26 -97 54 -113 63 l-30 17 26 30 c14 16 25 37 25 46 0 9 4 16 9 16 5 0 28
26 52 58 60 80 128 152 103 110z m3726 -185 c-140 -225 -236 -374 -248 -389
-5 -5 -15 -21 -22 -35 -7 -13 -33 -51 -57 -84 -23 -33 -51 -71 -60 -85 -23
-31 -143 -164 -153 -168 -4 -1 -5 -14 -2 -28 4 -23 3 -24 -22 -13 -28 13 -35
29 -12 29 7 0 31 25 52 56 68 98 97 140 177 251 42 59 135 196 206 303 126
191 168 247 178 236 3 -3 -13 -36 -37 -73z m-5777 -25 c-34 -85 -124 -260
-130 -254 -3 3 -12 -1 -20 -9 -12 -13 -11 -18 7 -37 12 -13 26 -32 32 -42 9
-16 8 -18 -8 -11 -11 4 -28 10 -38 13 -29 8 -153 92 -136 92 8 0 35 -9 59 -20
l44 -20 19 20 c10 11 34 52 53 91 19 39 40 79 48 88 8 9 17 25 21 37 7 23 63
114 70 114 3 0 -7 -28 -21 -62z m4763 -23 c32 -19 63 -40 68 -45 17 -17 35
-11 64 21 40 45 61 34 25 -13 -15 -20 -47 -64 -71 -97 -24 -33 -50 -65 -57
-71 -8 -7 -39 -49 -69 -94 -30 -44 -64 -91 -75 -103 -12 -12 -21 -27 -21 -33
0 -5 -4 -10 -10 -10 -5 0 -10 -5 -10 -11 0 -13 -38 -49 -52 -49 -11 0 67 154
101 200 14 19 61 77 103 128 76 89 89 112 68 112 -6 0 -28 11 -50 25 -23 14
-54 28 -70 31 -25 6 -31 2 -48 -32 -28 -54 -59 -88 -65 -72 -2 7 0 24 5 36 12
33 78 112 93 112 7 0 39 -16 71 -35z m529 -22 c-10 -16 -43 -64 -74 -108 -63
-89 -191 -283 -191 -290 0 -2 -23 -39 -52 -82 -62 -92 -93 -150 -120 -218 -27
-69 -71 -159 -80 -163 -5 -2 -8 -10 -8 -18 0 -8 -4 -14 -9 -14 -5 0 -12 -10
-16 -22 -4 -14 -8 -18 -12 -10 -2 6 5 33 17 60 12 26 25 56 30 67 4 11 13 33
19 48 15 37 14 60 -1 51 -6 -4 -1 10 12 32 63 103 127 204 161 256 22 31 39
66 39 77 0 12 5 21 10 21 6 0 19 15 30 33 66 109 229 307 253 307 5 0 1 -12
-8 -27z m712 2 c-7 -14 -15 -25 -19 -25 -5 0 -8 -5 -8 -11 0 -30 -185 -289
-206 -289 -8 0 -14 -4 -14 -8 0 -5 -11 -22 -25 -38 -28 -32 -87 -128 -131
-214 -32 -62 -54 -90 -54 -68 0 10 -3 9 -10 -2 -8 -13 -10 -12 -10 3 0 9 4 17
9 17 5 0 16 17 26 38 51 112 81 163 128 219 29 35 79 95 112 135 34 40 80 105
103 144 34 57 93 124 108 124 1 0 -3 -11 -9 -25z m-877 -578 c-11 -24 -26 -68
-34 -98 -15 -55 -89 -224 -140 -316 -31 -56 -60 -79 -51 -40 3 17 -5 30 -38
56 -33 26 -37 32 -17 26 14 -4 32 -14 41 -22 15 -12 19 -10 38 22 11 20 21 40
21 46 0 5 4 9 9 9 5 0 16 17 25 38 9 20 26 55 39 78 12 22 28 56 35 75 32 83
76 169 87 169 2 0 -5 -19 -15 -43z m-4284 -46 c-9 -10 -16 -21 -16 -25 0 -14
-231 -318 -291 -383 -35 -38 -66 -53 -80 -39 -3 3 37 48 89 101 82 86 230 277
272 353 8 15 20 30 25 34 17 13 18 -22 1 -41z m5174 -258 c0 -4 -34 -76 -75
-160 -41 -84 -75 -154 -75 -157 0 -9 -58 -132 -112 -241 -81 -162 -150 -273
-219 -355 -54 -64 -129 -176 -183 -272 -34 -61 -68 -104 -54 -67 3 8 14 34 23
59 10 25 28 56 39 70 33 38 86 117 86 127 0 5 21 36 46 69 109 138 298 474
325 578 10 38 127 273 165 331 15 24 34 33 34 18z m-345 -255 c-54 -171 -85
-248 -146 -367 -103 -202 -129 -244 -189 -312 -30 -34 -65 -77 -78 -95 -22
-32 -41 -48 -26 -21 17 30 100 144 121 167 47 50 152 266 238 490 55 141 114
243 80 138z m-374 10 c-5 -13 -23 -50 -39 -83 -16 -33 -41 -96 -56 -140 -36
-109 -39 -112 -65 -86 -21 21 -28 51 -12 51 5 0 35 53 66 118 52 109 87 162
106 162 5 0 4 -10 0 -22z m-161 -18 c0 -5 -8 -11 -17 -14 -10 -4 -25 -19 -33
-36 -27 -52 -93 -164 -126 -212 -49 -72 -85 -104 -63 -55 9 21 3 31 -73 106
-46 46 -74 80 -63 76 51 -19 59 -16 95 34 45 64 52 57 10 -10 -36 -60 -35 -78
11 -128 l32 -35 26 31 c14 17 48 66 75 108 27 42 54 82 60 88 6 7 19 25 29 40
16 25 37 29 37 7z m-951 -696 c-7 -34 -5 -53 9 -82 18 -39 31 -56 47 -59 43
-10 128 -53 145 -73 7 -9 43 -23 53 -22 4 1 7 -7 7 -17 0 -23 -26 -35 -34 -16
-3 8 -54 39 -113 69 -140 71 -165 94 -162 144 2 20 11 48 21 61 10 13 18 33
18 45 0 15 3 17 9 8 4 -8 4 -34 0 -58z m-143 -225 c3 -5 -3 -20 -14 -34 -16
-20 -21 -48 -27 -164 -10 -193 -20 -230 -63 -231 -17 0 -43 63 -48 115 -8 84
53 310 85 318 30 7 61 5 67 -4z m-7758 -1541 c54 -5 336 -11 628 -11 484 -2
532 -3 547 -19 16 -16 -5 -17 -350 -19 -628 -3 -730 -1 -853 17 -109 16 -140
26 -140 44 0 13 33 17 53 7 11 -5 62 -13 115 -19z m4405 -378 c-11 -19 -14
-33 -8 -39 12 -11 236 -111 250 -111 5 0 23 -7 39 -15 16 -9 37 -13 46 -10 23
7 41 -17 36 -46 -3 -13 -6 -44 -7 -69 l-2 -45 -6 50 -6 50 -162 80 c-89 44
-168 86 -175 93 -25 25 -52 13 -86 -41 -42 -65 -132 -164 -132 -143 0 8 8 21
18 28 9 7 30 33 47 58 27 41 49 69 123 157 34 41 49 43 25 3z m-610 -239 c-9
-7 -11 -17 -18 -119 -3 -41 -7 -77 -10 -81 -2 -5 9 -29 25 -55 16 -25 27 -46
24 -46 -6 0 -72 43 -122 80 -50 37 -364 118 -582 149 -41 6 -106 20 -145 31
-38 10 -81 21 -95 24 -14 3 -35 14 -47 26 -12 11 -32 21 -45 21 -22 2 -22 2
-2 6 12 2 84 -12 160 -31 77 -20 189 -43 249 -51 161 -22 449 -89 497 -115 30
-17 35 -12 53 53 9 34 21 67 25 72 4 6 13 32 21 59 14 48 14 49 17 16 2 -18 0
-36 -5 -39z m851 -157 c5 -12 2 -15 -13 -11 -11 3 -24 -3 -32 -16 -8 -11 -29
-37 -46 -57 -18 -21 -33 -43 -33 -50 0 -7 -6 -10 -14 -7 -8 3 -45 -27 -95 -79
-45 -46 -88 -84 -95 -84 -8 0 -18 9 -21 20 -3 11 -12 20 -18 20 -7 0 -39 25
-72 55 -32 30 -55 55 -49 55 23 0 92 -45 127 -83 l38 -41 132 132 c169 169
179 176 191 146z"/>
<path d="M8550 9979 c148 -72 219 -107 240 -118 8 -4 26 -14 40 -21 63 -34
102 -51 107 -46 8 8 -16 34 -38 41 -10 4 -19 12 -19 18 0 7 -17 21 -37 32 -21
11 -49 30 -63 43 -14 12 -36 25 -50 28 -14 3 -33 9 -42 15 -40 21 -125 49
-150 49 -14 0 -28 6 -31 13 -3 9 -7 9 -20 -2 -11 -9 -17 -10 -17 -2 0 6 -10
11 -22 11 -13 0 33 -28 102 -61z"/>
<path d="M12345 7390 c-9 -14 11 -37 38 -46 44 -12 162 -78 210 -116 27 -21
51 -37 53 -35 5 5 -8 104 -15 114 -3 5 -62 26 -131 48 -69 21 -130 40 -136 42
-7 3 -15 -1 -19 -7z"/>
<path d="M12340 7294 c0 -14 4 -23 10 -19 6 4 10 -6 10 -22 0 -20 10 -36 32
-53 18 -14 39 -33 48 -44 8 -10 21 -24 28 -31 6 -8 12 -36 12 -63 0 -44 4 -52
33 -75 42 -32 83 -72 131 -127 l38 -45 -6 113 -7 112 -56 60 c-31 32 -65 76
-77 97 -25 44 -136 123 -172 123 -19 0 -24 -5 -24 -26z"/>
<path d="M12436 6946 c-9 -14 -16 -30 -16 -36 0 -5 -4 -10 -10 -10 -47 0 79
-95 158 -120 23 -7 44 -11 47 -8 16 16 -49 100 -136 176 l-26 23 -17 -25z"/>
<path d="M12343 6833 c-57 -74 -104 -155 -101 -171 2 -9 25 -24 53 -35 l49
-18 18 23 c10 13 18 17 18 11 0 -14 84 -18 114 -7 26 10 19 23 -34 55 -49 30
-50 32 -49 77 1 50 -14 102 -30 102 -5 0 -22 -17 -38 -37z"/>
<path d="M12560 6161 c-146 -60 -157 -67 -165 -91 -7 -22 21 -76 43 -85 8 -3
26 1 41 8 103 54 133 68 184 87 25 9 27 13 27 70 0 33 -3 60 -7 60 -5 0 -60
-22 -123 -49z"/>
<path d="M4331 5902 c-19 -20 -32 -39 -30 -42 2 -3 -3 -13 -11 -22 -11 -11
-17 -12 -22 -4 -5 6 -8 1 -8 -12 0 -13 -4 -20 -10 -17 -5 3 -10 1 -10 -5 0 -6
-4 -8 -10 -5 -5 3 -10 2 -10 -4 0 -6 -11 -13 -25 -17 -14 -3 -34 -17 -44 -30
-10 -13 -21 -24 -24 -24 -19 0 -89 -87 -131 -161 l-26 -47 33 -24 c37 -28 72
-48 85 -48 4 0 24 30 43 68 19 37 36 69 39 72 13 13 8 30 -10 30 -14 0 -18 5
-13 18 10 26 67 112 71 107 5 -5 -21 -60 -44 -92 -16 -22 -15 -23 5 -23 19 0
26 10 22 33 0 4 3 7 7 7 4 0 25 29 47 65 22 36 43 65 48 65 4 0 7 8 7 17 0 9
3 13 7 10 8 -9 32 24 33 44 0 9 6 22 14 28 18 15 27 51 13 51 -7 -1 -27 -18
-46 -38z"/>
<path d="M3938 5468 c-8 -13 -18 -33 -22 -45 -4 -11 -20 -36 -35 -54 -16 -18
-27 -38 -24 -44 4 -11 66 -35 91 -35 5 0 8 10 6 23 -2 12 -2 16 2 10 3 -8 21
3 50 32 24 25 44 48 44 51 0 9 -81 84 -90 84 -4 0 -14 -10 -22 -22z"/>
<path d="M1786 4888 c-15 -36 -51 -78 -66 -78 -17 0 -11 -22 16 -57 l26 -35
-40 21 c-42 21 -53 18 -59 -19 -1 -8 -7 -16 -12 -18 -6 -2 -11 -13 -12 -25 0
-12 -3 -16 -6 -10 -6 16 -33 -8 -33 -29 0 -10 3 -9 10 2 8 13 10 12 10 -2 0
-10 -4 -18 -10 -18 -5 0 -7 -7 -4 -15 5 -12 13 -8 34 17 46 53 44 26 -3 -43
-24 -35 -52 -82 -62 -104 -10 -22 -31 -69 -47 -105 -16 -36 -36 -77 -44 -92
-21 -39 -18 -50 14 -46 19 2 28 9 30 26 2 12 9 22 17 22 14 0 118 123 164 195
14 22 29 42 33 45 3 3 23 34 43 70 30 53 35 68 26 87 -9 19 -5 31 21 70 17 27
42 60 56 75 31 33 24 51 -27 78 -53 27 -58 26 -75 -12z"/>
<path d="M3905 4790 c-6 -26 -35 -48 -57 -42 -5 1 -8 -7 -8 -18 0 -24 -35 -27
-59 -6 -25 21 -176 70 -194 63 -24 -9 -21 -34 6 -48 50 -27 209 -77 229 -71
18 4 20 2 14 -22 -3 -14 -1 -36 5 -47 11 -21 10 -21 -47 -15 -33 4 -78 12
-101 18 -24 6 -49 8 -58 4 -8 -3 -15 -2 -15 3 0 5 -35 17 -77 27 -74 17 -77
17 -87 -1 -6 -10 -30 -37 -53 -61 -24 -24 -43 -48 -43 -54 0 -10 140 -80 159
-80 4 0 17 19 29 43 35 64 49 88 61 100 20 20 11 -4 -26 -73 -21 -38 -35 -70
-33 -72 29 -19 172 -88 182 -88 17 0 93 105 94 130 1 10 9 26 18 35 9 9 16 23
16 31 0 8 9 22 20 31 11 10 20 23 20 30 0 7 5 13 10 13 20 0 5 -40 -30 -83
-13 -17 -13 -20 2 -31 10 -7 15 -16 11 -19 -3 -4 -1 -7 5 -7 7 0 31 25 55 56
57 76 149 187 162 196 18 13 -7 27 -105 58 -51 16 -94 30 -96 30 -1 0 -5 -13
-9 -30z"/>
<path d="M3274 4467 c-25 -29 -34 -67 -19 -83 15 -16 104 -44 139 -44 17 0 38
-5 46 -11 12 -9 12 -10 -3 -5 -10 3 -30 3 -43 0 l-25 -7 26 -27 c15 -15 45
-35 68 -45 23 -9 60 -25 82 -34 22 -9 68 -35 103 -58 59 -41 104 -54 117 -34
3 6 14 8 25 6 13 -3 20 2 21 13 0 11 2 12 6 4 2 -6 8 -10 13 -7 5 3 15 -2 23
-10 12 -11 17 -12 20 -2 4 9 6 9 6 0 1 -16 51 -17 51 -2 0 5 -4 8 -9 5 -9 -6
-21 14 -27 42 -3 17 -53 60 -79 68 -28 9 -106 63 -130 89 -22 24 -92 65 -112
65 -6 0 -66 20 -132 45 -127 47 -149 52 -167 32z"/>
<path d="M3190 4344 c-13 -23 -12 -27 4 -36 10 -6 57 -39 104 -75 119 -90 260
-162 372 -191 43 -11 60 -6 60 18 0 24 -35 48 -140 94 -261 116 -237 104 -242
126 -4 21 -38 50 -57 50 -9 0 -29 9 -46 20 -38 25 -39 25 -55 -6z"/>
<path d="M3147 4273 c-4 -3 -7 -15 -7 -25 0 -11 -4 -17 -9 -14 -5 3 -14 -8
-21 -25 -7 -17 -29 -42 -49 -57 -49 -37 -61 -49 -61 -61 0 -6 -4 -11 -10 -11
-5 0 -10 -4 -10 -10 0 -5 -13 -31 -30 -57 -35 -54 -38 -79 -11 -86 15 -4 36
15 89 82 39 47 95 123 125 167 l55 82 -24 11 c-29 13 -29 13 -37 4z"/>
<path d="M3213 4238 c-5 -7 -15 -25 -22 -40 -8 -15 -31 -46 -52 -70 -38 -42
-117 -181 -124 -217 -4 -23 32 -44 66 -39 18 2 24 9 24 28 0 14 6 31 13 38 7
8 10 18 7 23 -4 5 3 9 15 9 12 0 19 4 16 9 -7 11 23 44 54 58 14 6 19 12 13
12 -7 1 -13 6 -13 13 0 6 -8 20 -17 31 -18 20 -17 20 17 13 19 -3 66 -22 105
-41 76 -37 170 -67 179 -58 3 4 6 2 6 -4 0 -5 18 -15 41 -22 31 -9 44 -10 55
0 23 19 17 28 -43 55 -32 13 -60 28 -63 32 -9 12 -63 48 -100 67 -19 9 -53 32
-75 50 -71 56 -91 67 -102 53z"/>
<path d="M699 3838 c11 -24 42 -92 71 -153 l51 -110 94 100 c107 114 107 111
-4 144 -160 47 -210 61 -220 61 -6 0 -3 -18 8 -42z"/>
<path d="M4340 2582 c-17 -14 -34 -18 -55 -15 -24 4 -35 -1 -56 -24 -30 -34
-42 -72 -29 -93 9 -13 10 -13 10 0 0 12 2 12 9 2 7 -12 25 -19 56 -21 6 -1 3
-6 -5 -11 -12 -8 -11 -10 8 -10 12 0 22 -6 22 -14 0 -31 20 -25 46 13 29 45
44 45 44 0 0 -32 24 -49 43 -30 17 17 26 13 20 -8 -2 -10 3 -25 11 -34 9 -8
16 -23 16 -33 0 -10 3 -14 7 -11 3 4 18 -6 32 -22 16 -18 41 -32 64 -36 20 -4
37 -10 37 -14 0 -4 16 -8 36 -9 20 -2 45 -7 55 -13 14 -7 19 -6 19 2 0 7 15
-4 34 -23 l34 -34 7 95 c22 296 22 293 0 301 -11 4 -23 6 -27 3 -4 -2 -58 5
-120 16 -62 11 -144 22 -183 26 -38 3 -79 8 -91 11 -12 3 -30 -3 -44 -14z"/>
<path d="M8670 2250 c0 -14 30 -131 40 -155 65 -157 103 -498 81 -720 -12
-123 -11 -142 23 -323 16 -82 43 -257 55 -360 l6 -52 175 80 c179 82 388 193
585 308 113 67 491 318 500 332 11 18 -220 75 -345 86 -41 3 -125 14 -187 25
-61 10 -129 19 -151 19 -36 0 -40 3 -60 48 -12 26 -26 67 -33 91 -16 64 -73
142 -183 250 -53 52 -96 98 -96 102 0 16 -175 152 -264 204 -105 61 -146 80
-146 65z"/>
</g>
</svg>
